<svg width="auto" height="auto" viewBox="0 0 191 65" xmlns="http://www.w3.org/2000/svg">
<path d="M29.3745 0.0474071C28.6431 0.104321 27.6054 0.224474 27.1553 0.300359C26.5927 0.40154 25.455 0.622874 24.9986 0.724055C24.7736 0.774645 24.4735 0.837883 24.3298 0.869502C23.8859 0.964359 22.3731 1.40703 22.1543 1.50188C22.0856 1.5335 21.9605 1.57777 21.873 1.59674C21.6667 1.65365 20.8978 1.9319 20.6415 2.04573C20.5353 2.09632 20.404 2.13426 20.354 2.13426C20.2977 2.13426 20.2415 2.15956 20.2227 2.19118C20.2039 2.2228 20.1164 2.26706 20.0289 2.28604C19.9414 2.31133 19.7101 2.39986 19.5101 2.4884C19.3163 2.57693 18.985 2.7287 18.7787 2.81724C16.9908 3.62036 14.7091 4.97998 12.9338 6.30165C10.8396 7.85731 8.4579 10.2034 6.73882 12.4105C5.27603 14.2949 3.68822 16.9383 2.7943 18.9872C2.70678 19.1959 2.55675 19.5311 2.46923 19.7271C2.38172 19.9295 2.2942 20.1634 2.26919 20.252C2.25044 20.3405 2.20668 20.429 2.17542 20.448C2.14417 20.467 2.11916 20.5239 2.11916 20.5808C2.11916 20.6314 2.08166 20.7642 2.03165 20.8717C1.95038 21.0614 1.75034 21.6179 1.5378 22.244C1.35026 22.8131 0.962688 24.1791 0.86892 24.6028C0.837664 24.7482 0.775151 25.0517 0.725142 25.2794C0.156281 27.8785 0 29.4215 0 32.3621C0 34.2276 0.0312561 34.9106 0.175034 36.2512C0.262551 37.067 0.475093 38.3064 0.725142 39.4447C0.775151 39.6724 0.837664 39.9759 0.86892 40.1214C0.962688 40.5451 1.35026 41.911 1.5378 42.4802C1.75034 43.1062 1.95038 43.6627 2.03165 43.8524C2.08166 43.9599 2.11916 44.0927 2.11916 44.1433C2.11916 44.2002 2.14417 44.2572 2.17542 44.2761C2.20668 44.2951 2.25044 44.3836 2.26919 44.4722C2.2942 44.5607 2.38172 44.7947 2.46923 44.997C2.55675 45.1931 2.70678 45.5282 2.7943 45.7369C3.32565 46.9511 4.35085 48.8293 5.23227 50.1952C6.95761 52.8639 9.32682 55.4946 11.9648 57.6636C13.8402 59.2066 16.6345 60.9457 18.7787 61.9069C18.985 61.9954 19.3163 62.1472 19.5101 62.2357C19.7101 62.3243 19.9414 62.4128 20.0289 62.4381C20.1164 62.4571 20.2039 62.5013 20.2227 62.533C20.2415 62.5646 20.2977 62.5899 20.354 62.5899C20.404 62.5899 20.5353 62.6278 20.6415 62.6784C20.8291 62.7606 21.3792 62.963 21.998 63.178C22.5607 63.3677 23.9109 63.7598 24.3298 63.8546C24.4735 63.8863 24.7736 63.9495 24.9986 64.0001C27.5679 64.5755 29.0932 64.7336 32 64.7336C34.9068 64.7336 36.4321 64.5755 39.0014 64.0001C39.2264 63.9495 39.5265 63.8863 39.6702 63.8546C40.0891 63.7598 41.4393 63.3677 42.002 63.178C42.6208 62.963 43.1709 62.7606 43.3585 62.6784C43.4647 62.6278 43.596 62.5899 43.646 62.5899C43.7023 62.5899 43.7585 62.5646 43.7773 62.533C43.7961 62.5013 43.8836 62.4571 43.9711 62.4381C44.0586 62.4128 44.2899 62.3243 44.4899 62.2357C44.6837 62.1472 45.015 61.9954 45.2213 61.9069C46.9654 61.1291 49.2971 59.7378 51.0662 58.4225C53.5417 56.5886 56.1985 53.863 58.0113 51.3019C59.1866 49.645 60.4931 47.3685 61.2057 45.7369C61.2932 45.5282 61.4433 45.1931 61.5308 44.997C61.6183 44.7947 61.7058 44.5607 61.7308 44.4722C61.7496 44.3836 61.7933 44.2951 61.8246 44.2761C61.8558 44.2572 61.8808 44.2002 61.8808 44.1433C61.8808 44.0927 61.9183 43.9599 61.9684 43.8524C62.0496 43.6627 62.2497 43.1062 62.4622 42.4802C62.6497 41.911 63.0373 40.5451 63.1311 40.1214C63.1623 39.9759 63.2248 39.6724 63.2749 39.4447C63.8437 36.8456 64 35.3026 64 32.3621C64 30.4965 63.9687 29.8136 63.825 28.4729C63.7374 27.6572 63.5249 26.4177 63.2749 25.2794C63.2248 25.0517 63.1623 24.7482 63.1311 24.6028C63.0373 24.1791 62.6497 22.8131 62.4622 22.244C62.2497 21.6179 62.0496 21.0614 61.9684 20.8717C61.9183 20.7642 61.8808 20.6314 61.8808 20.5808C61.8808 20.5239 61.8558 20.467 61.8246 20.448C61.7933 20.429 61.7496 20.3405 61.7308 20.252C61.7058 20.1634 61.6183 19.9295 61.5308 19.7271C61.4433 19.5311 61.2932 19.1959 61.2057 18.9872C60.6744 17.773 59.6492 15.8949 58.7677 14.5289C57.0486 11.8666 54.6732 9.22958 52.0352 7.06051C50.1535 5.51118 47.4093 3.80375 45.2213 2.81724C45.015 2.7287 44.6837 2.57693 44.4899 2.4884C44.2899 2.39986 44.0586 2.31133 43.9711 2.28604C43.8836 2.26706 43.7961 2.2228 43.7773 2.19118C43.7585 2.15956 43.7023 2.13426 43.646 2.13426C43.596 2.13426 43.4647 2.09632 43.3585 2.04573C43.1022 1.9319 42.3333 1.65365 42.127 1.59674C42.0395 1.57777 41.9144 1.5335 41.8457 1.50188C41.6269 1.40703 40.1141 0.964359 39.6702 0.869502C39.5265 0.837883 39.2264 0.774645 39.0014 0.724055C38.545 0.622874 37.4073 0.40154 36.8447 0.300359C36.3946 0.224474 35.4632 0.123293 34.563 0.0474071C33.8066 -0.015831 30.1684 -0.015831 29.3745 0.0474071ZM35.2069 5.13175C38.6576 5.62501 41.3206 6.44078 44.1836 7.88261C47.3155 9.46356 50.0223 11.5947 52.4415 14.3708C55.2108 17.5517 57.2612 21.5357 58.2926 25.7537C58.5427 26.7781 58.8365 28.3212 58.7865 28.3654C58.7677 28.3844 58.6365 28.2832 58.4927 28.1441C58.3426 27.9986 57.6738 27.3916 57.0049 26.7971C56.336 26.1964 55.5358 25.4754 55.2233 25.1909C54.917 24.9 54.4356 24.47 54.1606 24.2233C53.8855 23.983 53.4229 23.5593 53.1291 23.2874C52.8353 23.0155 52.404 22.6234 52.1602 22.4147C51.6288 21.9531 50.9287 21.3144 49.8472 20.3215C49.4034 19.9042 48.9658 19.4994 48.8783 19.4172L48.7158 19.2718L47.6781 20.2077C46.7654 21.0298 45.4276 22.2503 43.5022 24.0083C43.1772 24.3055 42.8209 24.647 42.7083 24.7545C42.6021 24.8684 42.4708 24.9632 42.427 24.9632C42.3833 24.9569 41.9019 24.2802 41.3643 23.4581C40.1203 21.5673 39.8265 21.1436 39.7578 21.1183C39.7265 21.1057 39.664 21.1563 39.614 21.2195C39.5702 21.2891 37.4948 23.4265 35.0006 25.975C32.5063 28.5298 29.6433 31.4578 28.6431 32.4822L26.8115 34.3541L26.9865 34.4995C27.0803 34.5754 27.2991 34.7398 27.4679 34.86C27.6429 34.9801 27.9242 35.1762 28.093 35.2963C28.268 35.4228 28.7744 35.7706 29.2182 36.0678C29.6683 36.3714 30.0996 36.6812 30.1871 36.7634C30.2747 36.8393 30.4309 36.9532 30.5435 37.0227C30.8435 37.1935 31.7437 37.8195 32.7189 38.5341C33.2002 38.8819 33.7128 39.2487 33.8566 39.3436L34.1192 39.5206L34.388 39.2993C34.6568 39.078 36.3759 37.8828 37.1823 37.3579C37.4198 37.1998 38.0324 36.7887 38.5325 36.4409C39.0389 36.0931 39.7265 35.6252 40.0641 35.3975C40.4016 35.1698 41.5019 34.43 42.5146 33.747C44.5212 32.3874 44.7212 32.2672 45.5089 31.8815C46.8154 31.2428 48.1407 31.0214 49.5659 31.1922C50.8037 31.3376 52.1727 31.8498 52.9103 32.4506C53.0479 32.5644 53.2604 32.7162 53.3854 32.7921C53.7793 33.0324 54.867 34.2339 55.3171 34.9295C56.0985 36.1311 56.4235 36.9279 56.8236 38.6543C56.9424 39.1665 56.9424 41.7719 56.8299 42.3537C56.6423 43.2833 56.4423 44.0105 56.311 44.2635C56.2797 44.3267 56.2547 44.4026 56.2547 44.4405C56.2547 44.5417 55.7671 45.5472 55.4296 46.148C54.917 47.046 53.8668 48.5953 53.1479 49.4996C52.3852 50.4671 50.6224 52.2884 49.5972 53.1674C47.7906 54.7167 46.059 55.893 44.1836 56.8415C41.9144 57.9861 39.6515 58.7703 37.176 59.2635C35.5319 59.5924 32.6876 59.9086 32.6876 59.7568C32.6876 59.6999 33.1877 59.2699 34.3067 58.3656C34.6693 58.0747 35.3069 57.5498 36.1571 56.8352C36.3008 56.7151 36.6634 56.4115 36.9635 56.1712C37.2635 55.9246 37.8011 55.4882 38.1512 55.191C38.9951 54.4827 40.1641 53.5215 42.5646 51.5611C43.646 50.6758 44.6337 49.8664 44.7525 49.7652C44.8713 49.664 45.4214 49.2213 45.9715 48.7724C48.3657 46.8246 49.1721 46.0658 49.9223 45.0413C51.2725 43.2074 51.7476 41.0826 51.2038 39.3499C51.0912 38.9831 51.0475 38.9009 50.7474 38.4266C50.2848 37.712 49.5659 37.2946 48.7845 37.2946C48.0156 37.2946 47.7656 37.4211 45.6714 38.825C45.1651 39.1665 44.7337 39.4447 44.715 39.4447C44.7025 39.4447 44.5337 39.5586 44.3524 39.6977C44.1711 39.8368 44.0086 39.9506 43.9898 39.9506C43.9711 39.9506 43.746 40.0961 43.496 40.2668C42.8084 40.7411 40.4892 42.3094 40.3641 42.3853C40.2641 42.4422 39.4952 42.9608 36.951 44.6872C36.5634 44.9528 36.1758 45.212 36.0946 45.2626C36.0133 45.3132 35.782 45.4713 35.582 45.6041C35.3819 45.7432 34.9818 46.0152 34.6818 46.2112C34.388 46.4072 34.0692 46.6286 33.9629 46.6981C33.8629 46.774 32.5189 47.6847 30.9685 48.7218C29.4245 49.7652 27.918 50.777 27.6304 50.973C27.3428 51.1691 27.099 51.3335 27.0865 51.3335C27.074 51.3335 26.874 51.4536 26.6427 51.5928C26.0863 51.9406 24.9799 52.4844 24.5173 52.6488C24.3172 52.7184 24.0797 52.8069 23.9984 52.8386C23.1545 53.18 21.7105 53.4456 20.279 53.5215C19.5351 53.5595 17.7097 53.4203 17.2784 53.2939C17.1784 53.2623 16.9096 53.1927 16.6845 53.1358C14.8029 52.6488 12.7775 51.4853 11.3772 50.0687C10.8021 49.4869 10.0582 48.5068 9.28306 47.3052C8.11408 45.4903 7.664 44.352 7.33893 42.3663C7.20141 41.5506 7.23891 39.4953 7.40145 38.7807C7.45771 38.5341 7.53272 38.1926 7.56398 38.0219C7.81403 36.7698 8.84548 34.7651 9.94569 33.3928C10.7521 32.3874 12.1961 31.1985 13.2776 30.6546C14.3278 30.1234 14.9342 29.9148 15.9344 29.7377C17.2409 29.5037 19.4538 29.7187 20.4602 30.174C20.5665 30.2246 20.7853 30.3258 20.9541 30.3954C21.2729 30.5345 22.2356 31.11 22.6732 31.4198L22.942 31.6159L24.0172 30.5724C25.7863 28.8524 37.1385 17.3746 37.1135 17.3241C37.101 17.2988 36.9885 17.1027 36.8572 16.9004C35.7132 15.1107 33.5566 11.6832 33.119 10.9686C32.9314 10.6651 32.7376 10.3489 32.6876 10.2667C32.6376 10.1845 32.4563 9.89358 32.2876 9.62165C31.7562 8.74897 31.4686 8.3316 31.4061 8.3316C31.3436 8.33792 30.9498 8.85647 30.2434 9.88093C30.0496 10.1592 29.6183 10.7536 29.2807 11.2089C28.6493 12.0563 27.7367 13.3337 27.4054 13.8333C27.3053 13.9914 26.9803 14.4277 26.6865 14.8135C26.3927 15.1929 25.9613 15.781 25.7238 16.1099C25.48 16.4387 25.1362 16.913 24.9549 17.166C24.7736 17.4126 24.6236 17.6402 24.6236 17.6655C24.6236 17.6845 24.5298 17.811 24.4235 17.9438C24.311 18.0703 23.8984 18.6141 23.5108 19.1516C23.1233 19.6892 22.6357 20.3658 22.4169 20.6567C22.2043 20.9476 21.973 21.2638 21.9043 21.3586C21.0729 22.5096 20.529 23.1925 20.454 23.1925C20.404 23.1925 19.9226 22.7878 19.385 22.2882C18.8474 21.7887 18.3223 21.3144 18.2223 21.2258C18.016 21.0551 16.447 19.6702 16.1344 19.3856C16.0219 19.2844 15.9031 19.2085 15.8719 19.2212C15.7906 19.2528 15.0904 19.8346 13.9715 20.8211C13.4151 21.3081 12.6962 21.9341 12.3712 22.206C12.0461 22.4843 11.6335 22.8384 11.4585 22.9965C11.2835 23.1546 11.0147 23.3949 10.8646 23.5214C10.452 23.8755 10.1145 24.1664 9.22055 24.9632C8.77046 25.3616 8.34538 25.7284 8.28287 25.7853C8.12034 25.9118 7.49521 26.4556 6.25122 27.537C5.68236 28.0303 5.20727 28.4287 5.19476 28.416C5.15726 28.3717 5.43231 26.9046 5.68236 25.8802C6.18871 23.7617 6.80758 22.0479 7.80152 20.0306C10.3583 14.8388 14.6591 10.4943 19.8164 7.88261C23.042 6.25739 26.1614 5.3847 30.2809 4.95468C30.4184 4.94203 31.3186 4.93571 32.2813 4.94836C33.7691 4.96101 34.2129 4.99263 35.2069 5.13175Z" fill="#1C1A27"/>
<path d="M41.9707 10.3173C40.733 10.6208 39.7203 11.62 39.2452 12.9922C39.0889 13.4539 39.0201 14.4973 39.1201 14.9716C39.3952 16.3122 40.3641 17.4948 41.5519 17.9438C43.3585 18.6331 45.3964 17.6972 46.2465 15.781C46.4778 15.2625 46.5653 14.8325 46.5653 14.2001C46.5653 12.069 44.8087 10.2161 42.8146 10.2351C42.5208 10.2351 42.1457 10.273 41.9707 10.3173Z" fill="#1C1A27"/>
<path d="M16.8283 35.6188C14.6029 36.0109 12.8588 38.3507 12.8588 40.9308C12.8525 42.3094 13.3214 43.7386 14.109 44.7567C14.6279 45.427 15.4655 46.1922 15.9844 46.4641C16.1219 46.5337 16.2844 46.6539 16.3407 46.7171C16.4032 46.7867 16.5032 46.8436 16.5657 46.8436C16.6283 46.8436 16.8846 46.9258 17.1346 47.027C17.9098 47.3368 18.6912 47.476 19.6788 47.476C21.498 47.476 22.8607 46.9953 24.9674 45.6168C26.8177 44.4026 28.9057 42.9797 28.9057 42.9291C28.9057 42.8975 28.6931 42.7204 28.4368 42.5307C28.1805 42.341 27.5304 41.8731 26.999 41.4873C26.4677 41.0952 25.8926 40.6779 25.7175 40.5514C25.1424 40.134 23.8859 39.2234 23.5234 38.9704C23.3296 38.8313 22.6607 38.3444 22.0356 37.8891C19.7914 36.2512 19.1725 35.8781 18.4099 35.682C17.7972 35.5303 17.4159 35.5176 16.8283 35.6188Z" fill="#1C1A27"/>
<path d="M80.134 29.5279C80.134 30.4226 79.9287 31.2439 79.518 31.9919C79.1073 32.7253 78.4767 33.3193 77.626 33.7739C76.7753 34.2286 75.7193 34.4559 74.458 34.4559H72.126V39.9999H68.364V24.5559H74.458C75.69 24.5559 76.7313 24.7686 77.582 25.1939C78.4327 25.6193 79.0707 26.2059 79.496 26.9539C79.9213 27.7019 80.134 28.5599 80.134 29.5279ZM74.172 31.4639C74.8907 31.4639 75.426 31.2953 75.778 30.9579C76.13 30.6206 76.306 30.1439 76.306 29.5279C76.306 28.9119 76.13 28.4353 75.778 28.0979C75.426 27.7606 74.8907 27.5919 74.172 27.5919H72.126V31.4639H74.172ZM81.3445 33.8399C81.3445 32.5786 81.5792 31.4713 82.0485 30.5179C82.5325 29.5646 83.1852 28.8313 84.0065 28.3179C84.8278 27.8046 85.7445 27.5479 86.7565 27.5479C87.6218 27.5479 88.3772 27.7239 89.0225 28.0759C89.6825 28.4279 90.1885 28.8899 90.5405 29.4619V27.7239H94.3025V39.9999H90.5405V38.2619C90.1738 38.8339 89.6605 39.2959 89.0005 39.6479C88.3552 39.9999 87.5998 40.1759 86.7345 40.1759C85.7372 40.1759 84.8278 39.9193 84.0065 39.4059C83.1852 38.8779 82.5325 38.1373 82.0485 37.1839C81.5792 36.2159 81.3445 35.1013 81.3445 33.8399ZM90.5405 33.8619C90.5405 32.9233 90.2765 32.1826 89.7485 31.6399C89.2352 31.0973 88.6045 30.8259 87.8565 30.8259C87.1085 30.8259 86.4705 31.0973 85.9425 31.6399C85.4292 32.1679 85.1725 32.9013 85.1725 33.8399C85.1725 34.7786 85.4292 35.5266 85.9425 36.0839C86.4705 36.6266 87.1085 36.8979 87.8565 36.8979C88.6045 36.8979 89.2352 36.6266 89.7485 36.0839C90.2765 35.5413 90.5405 34.8006 90.5405 33.8619ZM103.866 36.8099V39.9999H101.952C100.588 39.9999 99.5248 39.6699 98.7622 39.0099C97.9995 38.3353 97.6182 37.2426 97.6182 35.7319V30.8479H96.1222V27.7239H97.6182V24.7319H101.38V27.7239H103.844V30.8479H101.38V35.7759C101.38 36.1426 101.468 36.4066 101.644 36.5679C101.82 36.7293 102.113 36.8099 102.524 36.8099H103.866ZM113.508 27.5919C114.916 27.5919 116.045 28.0613 116.896 28.9999C117.746 29.9239 118.172 31.1999 118.172 32.8279V39.9999H114.432V33.3339C114.432 32.5126 114.219 31.8746 113.794 31.4199C113.368 30.9653 112.796 30.7379 112.078 30.7379C111.359 30.7379 110.787 30.9653 110.362 31.4199C109.936 31.8746 109.724 32.5126 109.724 33.3339V39.9999H105.962V23.7199H109.724V29.3739C110.105 28.8313 110.626 28.3986 111.286 28.0759C111.946 27.7533 112.686 27.5919 113.508 27.5919ZM130.84 24.5559V27.5699H124.548V30.8259H129.256V33.7519H124.548V39.9999H120.786V24.5559H130.84ZM134.709 26.4479C134.049 26.4479 133.506 26.2573 133.081 25.8759C132.67 25.4799 132.465 24.9959 132.465 24.4239C132.465 23.8373 132.67 23.3533 133.081 22.9719C133.506 22.5759 134.049 22.3779 134.709 22.3779C135.354 22.3779 135.882 22.5759 136.293 22.9719C136.718 23.3533 136.931 23.8373 136.931 24.4239C136.931 24.9959 136.718 25.4799 136.293 25.8759C135.882 26.2573 135.354 26.4479 134.709 26.4479ZM136.579 27.7239V39.9999H132.817V27.7239H136.579ZM146.785 27.5919C148.223 27.5919 149.367 28.0613 150.217 28.9999C151.083 29.9239 151.515 31.1999 151.515 32.8279V39.9999H147.775V33.3339C147.775 32.5126 147.563 31.8746 147.137 31.4199C146.712 30.9653 146.14 30.7379 145.421 30.7379C144.703 30.7379 144.131 30.9653 143.705 31.4199C143.28 31.8746 143.067 32.5126 143.067 33.3339V39.9999H139.305V27.7239H143.067V29.3519C143.449 28.8093 143.962 28.3839 144.607 28.0759C145.253 27.7533 145.979 27.5919 146.785 27.5919ZM153.382 33.8399C153.382 32.5786 153.616 31.4713 154.086 30.5179C154.57 29.5646 155.222 28.8313 156.044 28.3179C156.865 27.8046 157.782 27.5479 158.794 27.5479C159.6 27.5479 160.334 27.7166 160.994 28.0539C161.668 28.3913 162.196 28.8459 162.578 29.4179V23.7199H166.34V39.9999H162.578V38.2399C162.226 38.8266 161.72 39.2959 161.06 39.6479C160.414 39.9999 159.659 40.1759 158.794 40.1759C157.782 40.1759 156.865 39.9193 156.044 39.4059C155.222 38.8779 154.57 38.1373 154.086 37.1839C153.616 36.2159 153.382 35.1013 153.382 33.8399ZM162.578 33.8619C162.578 32.9233 162.314 32.1826 161.786 31.6399C161.272 31.0973 160.642 30.8259 159.894 30.8259C159.146 30.8259 158.508 31.0973 157.98 31.6399C157.466 32.1679 157.21 32.9013 157.21 33.8399C157.21 34.7786 157.466 35.5266 157.98 36.0839C158.508 36.6266 159.146 36.8979 159.894 36.8979C160.642 36.8979 161.272 36.6266 161.786 36.0839C162.314 35.5413 162.578 34.8006 162.578 33.8619ZM180.633 33.6639C180.633 34.0159 180.611 34.3826 180.567 34.7639H172.053C172.112 35.5266 172.354 36.1133 172.779 36.5239C173.219 36.9199 173.755 37.1179 174.385 37.1179C175.324 37.1179 175.977 36.7219 176.343 35.9299H180.347C180.142 36.7366 179.768 37.4626 179.225 38.1079C178.697 38.7533 178.03 39.2593 177.223 39.6259C176.417 39.9926 175.515 40.1759 174.517 40.1759C173.315 40.1759 172.244 39.9193 171.305 39.4059C170.367 38.8926 169.633 38.1593 169.105 37.2059C168.577 36.2526 168.313 35.1379 168.313 33.8619C168.313 32.5859 168.57 31.4713 169.083 30.5179C169.611 29.5646 170.345 28.8313 171.283 28.3179C172.222 27.8046 173.3 27.5479 174.517 27.5479C175.705 27.5479 176.761 27.7973 177.685 28.2959C178.609 28.7946 179.328 29.5059 179.841 30.4299C180.369 31.3539 180.633 32.4319 180.633 33.6639ZM176.783 32.6739C176.783 32.0286 176.563 31.5153 176.123 31.1339C175.683 30.7526 175.133 30.5619 174.473 30.5619C173.843 30.5619 173.307 30.7453 172.867 31.1119C172.442 31.4786 172.178 31.9993 172.075 32.6739H176.783ZM186.38 29.7699C186.82 29.0953 187.37 28.5673 188.03 28.1859C188.69 27.7899 189.423 27.5919 190.23 27.5919V31.5739H189.196C188.257 31.5739 187.553 31.7793 187.084 32.1899C186.615 32.5859 186.38 33.2899 186.38 34.3019V39.9999H182.618V27.7239H186.38V29.7699Z" fill="#1C1A27"/>
</svg>
