<svg width="124" height="98" viewBox="0 0 124 98" fill="none" xmlns="http://www.w3.org/2000/svg">
<path d="M59.3745 0.0474071C58.6431 0.104321 57.6054 0.224474 57.1553 0.300359C56.5927 0.40154 55.455 0.622874 54.9986 0.724055C54.7736 0.774645 54.4735 0.837883 54.3298 0.869502C53.8859 0.964359 52.3731 1.40703 52.1543 1.50188C52.0856 1.5335 51.9605 1.57777 51.873 1.59674C51.6667 1.65365 50.8978 1.9319 50.6415 2.04573C50.5353 2.09632 50.404 2.13426 50.354 2.13426C50.2977 2.13426 50.2415 2.15956 50.2227 2.19118C50.2039 2.2228 50.1164 2.26706 50.0289 2.28604C49.9414 2.31133 49.7101 2.39986 49.5101 2.4884C49.3163 2.57693 48.985 2.7287 48.7787 2.81724C46.9908 3.62036 44.7091 4.97998 42.9338 6.30165C40.8396 7.85731 38.4579 10.2034 36.7388 12.4105C35.276 14.2949 33.6882 16.9383 32.7943 18.9872C32.7068 19.1959 32.5567 19.5311 32.4692 19.7271C32.3817 19.9295 32.2942 20.1634 32.2692 20.252C32.2504 20.3405 32.2067 20.429 32.1754 20.448C32.1442 20.467 32.1192 20.5239 32.1192 20.5808C32.1192 20.6314 32.0817 20.7642 32.0316 20.8717C31.9504 21.0614 31.7503 21.6179 31.5378 22.244C31.3503 22.8131 30.9627 24.1791 30.8689 24.6028C30.8377 24.7482 30.7752 25.0517 30.7251 25.2794C30.1563 27.8785 30 29.4215 30 32.3621C30 34.2276 30.0313 34.9106 30.175 36.2512C30.2626 37.067 30.4751 38.3064 30.7251 39.4447C30.7752 39.6724 30.8377 39.9759 30.8689 40.1214C30.9627 40.5451 31.3503 41.911 31.5378 42.4802C31.7503 43.1062 31.9504 43.6627 32.0316 43.8524C32.0817 43.9599 32.1192 44.0927 32.1192 44.1433C32.1192 44.2002 32.1442 44.2572 32.1754 44.2761C32.2067 44.2951 32.2504 44.3836 32.2692 44.4722C32.2942 44.5607 32.3817 44.7947 32.4692 44.997C32.5567 45.1931 32.7068 45.5282 32.7943 45.7369C33.3256 46.9511 34.3508 48.8293 35.2323 50.1952C36.9576 52.8639 39.3268 55.4946 41.9648 57.6636C43.8402 59.2066 46.6345 60.9457 48.7787 61.9069C48.985 61.9954 49.3163 62.1472 49.5101 62.2357C49.7101 62.3243 49.9414 62.4128 50.0289 62.4381C50.1164 62.4571 50.2039 62.5013 50.2227 62.533C50.2415 62.5646 50.2977 62.5899 50.354 62.5899C50.404 62.5899 50.5353 62.6278 50.6415 62.6784C50.8291 62.7606 51.3792 62.963 51.998 63.178C52.5607 63.3677 53.9109 63.7598 54.3298 63.8546C54.4735 63.8863 54.7736 63.9495 54.9986 64.0001C57.5679 64.5755 59.0932 64.7336 62 64.7336C64.9068 64.7336 66.4321 64.5755 69.0014 64.0001C69.2264 63.9495 69.5265 63.8863 69.6702 63.8546C70.0891 63.7598 71.4393 63.3677 72.002 63.178C72.6208 62.963 73.1709 62.7606 73.3585 62.6784C73.4647 62.6278 73.596 62.5899 73.646 62.5899C73.7023 62.5899 73.7585 62.5646 73.7773 62.533C73.7961 62.5013 73.8836 62.4571 73.9711 62.4381C74.0586 62.4128 74.2899 62.3243 74.4899 62.2357C74.6837 62.1472 75.015 61.9954 75.2213 61.9069C76.9654 61.1291 79.2971 59.7378 81.0662 58.4225C83.5417 56.5886 86.1985 53.863 88.0113 51.3019C89.1866 49.645 90.4931 47.3685 91.2057 45.7369C91.2932 45.5282 91.4433 45.1931 91.5308 44.997C91.6183 44.7947 91.7058 44.5607 91.7308 44.4722C91.7496 44.3836 91.7933 44.2951 91.8246 44.2761C91.8558 44.2572 91.8808 44.2002 91.8808 44.1433C91.8808 44.0927 91.9183 43.9599 91.9684 43.8524C92.0496 43.6627 92.2497 43.1062 92.4622 42.4802C92.6497 41.911 93.0373 40.5451 93.1311 40.1214C93.1623 39.9759 93.2248 39.6724 93.2749 39.4447C93.8437 36.8456 94 35.3026 94 32.3621C94 30.4965 93.9687 29.8136 93.825 28.4729C93.7374 27.6572 93.5249 26.4177 93.2749 25.2794C93.2248 25.0517 93.1623 24.7482 93.1311 24.6028C93.0373 24.1791 92.6497 22.8131 92.4622 22.244C92.2497 21.6179 92.0496 21.0614 91.9684 20.8717C91.9183 20.7642 91.8808 20.6314 91.8808 20.5808C91.8808 20.5239 91.8558 20.467 91.8246 20.448C91.7933 20.429 91.7496 20.3405 91.7308 20.252C91.7058 20.1634 91.6183 19.9295 91.5308 19.7271C91.4433 19.5311 91.2932 19.1959 91.2057 18.9872C90.6744 17.773 89.6492 15.8949 88.7677 14.5289C87.0486 11.8666 84.6732 9.22958 82.0352 7.06051C80.1535 5.51118 77.4093 3.80375 75.2213 2.81724C75.015 2.7287 74.6837 2.57693 74.4899 2.4884C74.2899 2.39986 74.0586 2.31133 73.9711 2.28604C73.8836 2.26706 73.7961 2.2228 73.7773 2.19118C73.7585 2.15956 73.7023 2.13426 73.646 2.13426C73.596 2.13426 73.4647 2.09632 73.3585 2.04573C73.1022 1.9319 72.3333 1.65365 72.127 1.59674C72.0395 1.57777 71.9144 1.5335 71.8457 1.50188C71.6269 1.40703 70.1141 0.964359 69.6702 0.869502C69.5265 0.837883 69.2264 0.774645 69.0014 0.724055C68.545 0.622874 67.4073 0.40154 66.8447 0.300359C66.3946 0.224474 65.4632 0.123293 64.563 0.0474071C63.8066 -0.015831 60.1684 -0.015831 59.3745 0.0474071ZM65.2069 5.13175C68.6576 5.62501 71.3206 6.44078 74.1836 7.88261C77.3155 9.46356 80.0223 11.5947 82.4415 14.3708C85.2108 17.5517 87.2612 21.5357 88.2926 25.7537C88.5427 26.7781 88.8365 28.3212 88.7865 28.3654C88.7677 28.3844 88.6365 28.2832 88.4927 28.1441C88.3426 27.9986 87.6738 27.3916 87.0049 26.7971C86.336 26.1964 85.5358 25.4754 85.2233 25.1909C84.917 24.9 84.4356 24.47 84.1606 24.2233C83.8855 23.983 83.4229 23.5593 83.1291 23.2874C82.8353 23.0155 82.404 22.6234 82.1602 22.4147C81.6288 21.9531 80.9287 21.3144 79.8472 20.3215C79.4034 19.9042 78.9658 19.4994 78.8783 19.4172L78.7158 19.2718L77.6781 20.2077C76.7654 21.0298 75.4276 22.2503 73.5022 24.0083C73.1772 24.3055 72.8209 24.647 72.7083 24.7545C72.6021 24.8684 72.4708 24.9632 72.427 24.9632C72.3833 24.9569 71.9019 24.2802 71.3643 23.4581C70.1203 21.5673 69.8265 21.1436 69.7578 21.1183C69.7265 21.1057 69.664 21.1563 69.614 21.2195C69.5702 21.2891 67.4948 23.4265 65.0006 25.975C62.5063 28.5298 59.6433 31.4578 58.6431 32.4822L56.8115 34.3541L56.9865 34.4995C57.0803 34.5754 57.2991 34.7398 57.4679 34.86C57.6429 34.9801 57.9242 35.1762 58.093 35.2963C58.268 35.4228 58.7744 35.7706 59.2182 36.0678C59.6683 36.3714 60.0996 36.6812 60.1871 36.7634C60.2747 36.8393 60.4309 36.9532 60.5435 37.0227C60.8435 37.1935 61.7437 37.8195 62.7189 38.5341C63.2002 38.8819 63.7128 39.2487 63.8566 39.3436L64.1192 39.5206L64.388 39.2993C64.6568 39.078 66.3759 37.8828 67.1823 37.3579C67.4198 37.1998 68.0324 36.7887 68.5325 36.4409C69.0389 36.0931 69.7265 35.6252 70.0641 35.3975C70.4016 35.1698 71.5019 34.43 72.5146 33.747C74.5212 32.3874 74.7212 32.2672 75.5089 31.8815C76.8154 31.2428 78.1407 31.0214 79.5659 31.1922C80.8037 31.3376 82.1727 31.8498 82.9103 32.4506C83.0479 32.5644 83.2604 32.7162 83.3854 32.7921C83.7793 33.0324 84.867 34.2339 85.3171 34.9295C86.0985 36.1311 86.4235 36.9279 86.8236 38.6543C86.9424 39.1665 86.9424 41.7719 86.8299 42.3537C86.6423 43.2833 86.4423 44.0105 86.311 44.2635C86.2797 44.3267 86.2547 44.4026 86.2547 44.4405C86.2547 44.5417 85.7671 45.5472 85.4296 46.148C84.917 47.046 83.8668 48.5953 83.1479 49.4996C82.3852 50.4671 80.6224 52.2884 79.5972 53.1674C77.7906 54.7167 76.059 55.893 74.1836 56.8415C71.9144 57.9861 69.6515 58.7703 67.176 59.2635C65.5319 59.5924 62.6876 59.9086 62.6876 59.7568C62.6876 59.6999 63.1877 59.2699 64.3067 58.3656C64.6693 58.0747 65.3069 57.5498 66.1571 56.8352C66.3008 56.7151 66.6634 56.4115 66.9635 56.1712C67.2635 55.9246 67.8011 55.4882 68.1512 55.191C68.9951 54.4827 70.1641 53.5215 72.5646 51.5611C73.646 50.6758 74.6337 49.8664 74.7525 49.7652C74.8713 49.664 75.4214 49.2213 75.9715 48.7724C78.3657 46.8246 79.1721 46.0658 79.9223 45.0413C81.2725 43.2074 81.7476 41.0826 81.2038 39.3499C81.0912 38.9831 81.0475 38.9009 80.7474 38.4266C80.2848 37.712 79.5659 37.2946 78.7845 37.2946C78.0156 37.2946 77.7656 37.4211 75.6714 38.825C75.1651 39.1665 74.7337 39.4447 74.715 39.4447C74.7025 39.4447 74.5337 39.5586 74.3524 39.6977C74.1711 39.8368 74.0086 39.9506 73.9898 39.9506C73.9711 39.9506 73.746 40.0961 73.496 40.2668C72.8084 40.7411 70.4892 42.3094 70.3641 42.3853C70.2641 42.4422 69.4952 42.9608 66.951 44.6872C66.5634 44.9528 66.1758 45.212 66.0946 45.2626C66.0133 45.3132 65.782 45.4713 65.582 45.6041C65.3819 45.7432 64.9818 46.0152 64.6818 46.2112C64.388 46.4072 64.0692 46.6286 63.9629 46.6981C63.8629 46.774 62.5189 47.6847 60.9685 48.7218C59.4245 49.7652 57.918 50.777 57.6304 50.973C57.3428 51.1691 57.099 51.3335 57.0865 51.3335C57.074 51.3335 56.874 51.4536 56.6427 51.5928C56.0863 51.9406 54.9799 52.4844 54.5173 52.6488C54.3172 52.7184 54.0797 52.8069 53.9984 52.8386C53.1545 53.18 51.7105 53.4456 50.279 53.5215C49.5351 53.5595 47.7097 53.4203 47.2784 53.2939C47.1784 53.2623 46.9096 53.1927 46.6845 53.1358C44.8029 52.6488 42.7775 51.4853 41.3772 50.0687C40.8021 49.4869 40.0582 48.5068 39.2831 47.3052C38.1141 45.4903 37.664 44.352 37.3389 42.3663C37.2014 41.5506 37.2389 39.4953 37.4014 38.7807C37.4577 38.5341 37.5327 38.1926 37.564 38.0219C37.814 36.7698 38.8455 34.7651 39.9457 33.3928C40.7521 32.3874 42.1961 31.1985 43.2776 30.6546C44.3278 30.1234 44.9342 29.9148 45.9344 29.7377C47.2409 29.5037 49.4538 29.7187 50.4602 30.174C50.5665 30.2246 50.7853 30.3258 50.9541 30.3954C51.2729 30.5345 52.2356 31.11 52.6732 31.4198L52.942 31.6159L54.0172 30.5724C55.7863 28.8524 67.1385 17.3746 67.1135 17.3241C67.101 17.2988 66.9885 17.1027 66.8572 16.9004C65.7132 15.1107 63.5566 11.6832 63.119 10.9686C62.9314 10.6651 62.7376 10.3489 62.6876 10.2667C62.6376 10.1845 62.4563 9.89358 62.2876 9.62165C61.7562 8.74897 61.4686 8.3316 61.4061 8.3316C61.3436 8.33792 60.9498 8.85647 60.2434 9.88093C60.0496 10.1592 59.6183 10.7536 59.2807 11.2089C58.6493 12.0563 57.7367 13.3337 57.4054 13.8333C57.3053 13.9914 56.9803 14.4277 56.6865 14.8135C56.3927 15.1929 55.9613 15.781 55.7238 16.1099C55.48 16.4387 55.1362 16.913 54.9549 17.166C54.7736 17.4126 54.6236 17.6402 54.6236 17.6655C54.6236 17.6845 54.5298 17.811 54.4235 17.9438C54.311 18.0703 53.8984 18.6141 53.5108 19.1516C53.1233 19.6892 52.6357 20.3658 52.4169 20.6567C52.2043 20.9476 51.973 21.2638 51.9043 21.3586C51.0729 22.5096 50.529 23.1925 50.454 23.1925C50.404 23.1925 49.9226 22.7878 49.385 22.2882C48.8474 21.7887 48.3223 21.3144 48.2223 21.2258C48.016 21.0551 46.447 19.6702 46.1344 19.3856C46.0219 19.2844 45.9031 19.2085 45.8719 19.2212C45.7906 19.2528 45.0904 19.8346 43.9715 20.8211C43.4151 21.3081 42.6962 21.9341 42.3712 22.206C42.0461 22.4843 41.6335 22.8384 41.4585 22.9965C41.2835 23.1546 41.0147 23.3949 40.8646 23.5214C40.452 23.8755 40.1145 24.1664 39.2206 24.9632C38.7705 25.3616 38.3454 25.7284 38.2829 25.7853C38.1203 25.9118 37.4952 26.4556 36.2512 27.537C35.6824 28.0303 35.2073 28.4287 35.1948 28.416C35.1573 28.3717 35.4323 26.9046 35.6824 25.8802C36.1887 23.7617 36.8076 22.0479 37.8015 20.0306C40.3583 14.8388 44.6591 10.4943 49.8164 7.88261C53.042 6.25739 56.1614 5.3847 60.2809 4.95468C60.4184 4.94203 61.3186 4.93571 62.2813 4.94836C63.7691 4.96101 64.2129 4.99263 65.2069 5.13175Z" fill="#1C1A27"/>
<path d="M71.9706 10.3173C70.7329 10.6208 69.7202 11.62 69.2451 12.9922C69.0888 13.4539 69.0201 14.4973 69.1201 14.9716C69.3951 16.3122 70.3641 17.4948 71.5518 17.9438C73.3584 18.6331 75.3963 17.6972 76.2465 15.781C76.4778 15.2625 76.5653 14.8325 76.5653 14.2001C76.5653 12.069 74.8087 10.2161 72.8145 10.2351C72.5207 10.2351 72.1457 10.273 71.9706 10.3173Z" fill="#1C1A27"/>
<path d="M46.8283 35.6188C44.6029 36.0109 42.8588 38.3507 42.8588 40.9308C42.8525 42.3094 43.3214 43.7386 44.109 44.7567C44.6279 45.427 45.4655 46.1922 45.9844 46.4641C46.1219 46.5337 46.2844 46.6539 46.3407 46.7171C46.4032 46.7867 46.5032 46.8436 46.5657 46.8436C46.6283 46.8436 46.8846 46.9258 47.1346 47.027C47.9098 47.3368 48.6912 47.476 49.6788 47.476C51.498 47.476 52.8607 46.9953 54.9674 45.6168C56.8177 44.4026 58.9057 42.9797 58.9057 42.9291C58.9057 42.8975 58.6931 42.7204 58.4368 42.5307C58.1805 42.341 57.5304 41.8731 56.999 41.4873C56.4677 41.0952 55.8926 40.6779 55.7175 40.5514C55.1424 40.134 53.8859 39.2234 53.5234 38.9704C53.3296 38.8313 52.6607 38.3444 52.0356 37.8891C49.7914 36.2512 49.1725 35.8781 48.4099 35.682C47.7972 35.5303 47.4159 35.5176 46.8283 35.6188Z" fill="#1C1A27"/>
<path d="M13.134 78.528C13.134 79.4227 12.9287 80.244 12.518 80.992C12.1073 81.7253 11.4767 82.3193 10.626 82.774C9.77533 83.2287 8.71933 83.456 7.458 83.456H5.126V89H1.364V73.556H7.458C8.69 73.556 9.73133 73.7687 10.582 74.194C11.4327 74.6193 12.0707 75.206 12.496 75.954C12.9213 76.702 13.134 77.56 13.134 78.528ZM7.172 80.464C7.89067 80.464 8.426 80.2953 8.778 79.958C9.13 79.6207 9.306 79.144 9.306 78.528C9.306 77.912 9.13 77.4353 8.778 77.098C8.426 76.7607 7.89067 76.592 7.172 76.592H5.126V80.464H7.172ZM14.3445 82.84C14.3445 81.5787 14.5792 80.4713 15.0485 79.518C15.5325 78.5647 16.1852 77.8313 17.0065 77.318C17.8278 76.8047 18.7445 76.548 19.7565 76.548C20.6218 76.548 21.3772 76.724 22.0225 77.076C22.6825 77.428 23.1885 77.89 23.5405 78.462V76.724H27.3025V89H23.5405V87.262C23.1738 87.834 22.6605 88.296 22.0005 88.648C21.3552 89 20.5998 89.176 19.7345 89.176C18.7372 89.176 17.8278 88.9193 17.0065 88.406C16.1852 87.878 15.5325 87.1373 15.0485 86.184C14.5792 85.216 14.3445 84.1013 14.3445 82.84ZM23.5405 82.862C23.5405 81.9233 23.2765 81.1827 22.7485 80.64C22.2352 80.0973 21.6045 79.826 20.8565 79.826C20.1085 79.826 19.4705 80.0973 18.9425 80.64C18.4292 81.168 18.1725 81.9013 18.1725 82.84C18.1725 83.7787 18.4292 84.5267 18.9425 85.084C19.4705 85.6267 20.1085 85.898 20.8565 85.898C21.6045 85.898 22.2352 85.6267 22.7485 85.084C23.2765 84.5413 23.5405 83.8007 23.5405 82.862ZM36.8662 85.81V89H34.9522C33.5882 89 32.5248 88.67 31.7622 88.01C30.9995 87.3353 30.6182 86.2427 30.6182 84.732V79.848H29.1222V76.724H30.6182V73.732H34.3802V76.724H36.8442V79.848H34.3802V84.776C34.3802 85.1427 34.4682 85.4067 34.6442 85.568C34.8202 85.7293 35.1135 85.81 35.5242 85.81H36.8662ZM46.5077 76.592C47.9157 76.592 49.045 77.0613 49.8957 78C50.7463 78.924 51.1717 80.2 51.1717 81.828V89H47.4317V82.334C47.4317 81.5127 47.219 80.8747 46.7937 80.42C46.3683 79.9653 45.7963 79.738 45.0777 79.738C44.359 79.738 43.787 79.9653 43.3617 80.42C42.9363 80.8747 42.7237 81.5127 42.7237 82.334V89H38.9617V72.72H42.7237V78.374C43.105 77.8313 43.6257 77.3987 44.2857 77.076C44.9457 76.7533 45.6863 76.592 46.5077 76.592ZM63.8399 73.556V76.57H57.5479V79.826H62.2559V82.752H57.5479V89H53.7859V73.556H63.8399ZM67.7091 75.448C67.0491 75.448 66.5065 75.2573 66.0811 74.876C65.6705 74.48 65.4651 73.996 65.4651 73.424C65.4651 72.8373 65.6705 72.3533 66.0811 71.972C66.5065 71.576 67.0491 71.378 67.7091 71.378C68.3545 71.378 68.8825 71.576 69.2931 71.972C69.7185 72.3533 69.9311 72.8373 69.9311 73.424C69.9311 73.996 69.7185 74.48 69.2931 74.876C68.8825 75.2573 68.3545 75.448 67.7091 75.448ZM69.5791 76.724V89H65.8171V76.724H69.5791ZM79.7854 76.592C81.2227 76.592 82.3667 77.0613 83.2174 78C84.0827 78.924 84.5154 80.2 84.5154 81.828V89H80.7754V82.334C80.7754 81.5127 80.5627 80.8747 80.1374 80.42C79.7121 79.9653 79.1401 79.738 78.4214 79.738C77.7027 79.738 77.1307 79.9653 76.7054 80.42C76.2801 80.8747 76.0674 81.5127 76.0674 82.334V89H72.3054V76.724H76.0674V78.352C76.4487 77.8093 76.9621 77.384 77.6074 77.076C78.2527 76.7533 78.9787 76.592 79.7854 76.592ZM86.3816 82.84C86.3816 81.5787 86.6163 80.4713 87.0856 79.518C87.5696 78.5647 88.2223 77.8313 89.0436 77.318C89.865 76.8047 90.7816 76.548 91.7936 76.548C92.6003 76.548 93.3336 76.7167 93.9936 77.054C94.6683 77.3913 95.1963 77.846 95.5776 78.418V72.72H99.3396V89H95.5776V87.24C95.2256 87.8267 94.7196 88.296 94.0596 88.648C93.4143 89 92.659 89.176 91.7936 89.176C90.7816 89.176 89.865 88.9193 89.0436 88.406C88.2223 87.878 87.5696 87.1373 87.0856 86.184C86.6163 85.216 86.3816 84.1013 86.3816 82.84ZM95.5776 82.862C95.5776 81.9233 95.3136 81.1827 94.7856 80.64C94.2723 80.0973 93.6416 79.826 92.8936 79.826C92.1456 79.826 91.5076 80.0973 90.9796 80.64C90.4663 81.168 90.2096 81.9013 90.2096 82.84C90.2096 83.7787 90.4663 84.5267 90.9796 85.084C91.5076 85.6267 92.1456 85.898 92.8936 85.898C93.6416 85.898 94.2723 85.6267 94.7856 85.084C95.3136 84.5413 95.5776 83.8007 95.5776 82.862ZM113.633 82.664C113.633 83.016 113.611 83.3827 113.567 83.764H105.053C105.112 84.5267 105.354 85.1133 105.779 85.524C106.219 85.92 106.755 86.118 107.385 86.118C108.324 86.118 108.977 85.722 109.343 84.93H113.347C113.142 85.7367 112.768 86.4627 112.225 87.108C111.697 87.7533 111.03 88.2593 110.223 88.626C109.417 88.9927 108.515 89.176 107.517 89.176C106.315 89.176 105.244 88.9193 104.305 88.406C103.367 87.8927 102.633 87.1593 102.105 86.206C101.577 85.2527 101.313 84.138 101.313 82.862C101.313 81.586 101.57 80.4713 102.083 79.518C102.611 78.5647 103.345 77.8313 104.283 77.318C105.222 76.8047 106.3 76.548 107.517 76.548C108.705 76.548 109.761 76.7973 110.685 77.296C111.609 77.7947 112.328 78.506 112.841 79.43C113.369 80.354 113.633 81.432 113.633 82.664ZM109.783 81.674C109.783 81.0287 109.563 80.5153 109.123 80.134C108.683 79.7527 108.133 79.562 107.473 79.562C106.843 79.562 106.307 79.7453 105.867 80.112C105.442 80.4787 105.178 80.9993 105.075 81.674H109.783ZM119.38 78.77C119.82 78.0953 120.37 77.5673 121.03 77.186C121.69 76.79 122.423 76.592 123.23 76.592V80.574H122.196C121.257 80.574 120.553 80.7793 120.084 81.19C119.615 81.586 119.38 82.29 119.38 83.302V89H115.618V76.724H119.38V78.77Z" fill="#1C1A27"/>
</svg>
