<svg version="1.1" id="Layer_1" xmlns="http://www.w3.org/2000/svg" xmlns:xlink="http://www.w3.org/1999/xlink" x="0px" y="0px" viewBox="0 0 500 500" style="width: 214px;" xml:space="preserve" data-imageid="progress-25" imageName="Progress" class="illustrations_image">
<style type="text/css">
	.st0_progress-25{fill:#FFFFFF;}
	.st1_progress-25{fill:#231F20;}
	.st2_progress-25{fill:#68E1FD;}
	.st3_progress-25{fill:#D1D3D4;}
</style>
<g id="Target_progress-25">
	<circle class="st0_progress-25" cx="368.8" cy="157" r="77.1"/>
	<path class="st1_progress-25" d="M368.8,234.8c-43,0-77.8-34.8-77.8-77.8s34.8-77.8,77.8-77.8s77.8,34.8,77.8,77.8&#10;&#9;&#9;C446.6,200,411.8,234.8,368.8,234.8L368.8,234.8z M368.8,80.6c-42.2,0-76.4,34.2-76.4,76.4s34.2,76.4,76.4,76.4&#10;&#9;&#9;s76.4-34.2,76.4-76.4l0,0C445.2,114.8,411,80.7,368.8,80.6z"/>
	<circle class="st2_progress-25 targetColor" cx="368.8" cy="157" r="59.1" style="fill: rgb(0, 71, 255);"/>
	<circle class="st0_progress-25" cx="368.8" cy="157" r="41.8"/>
	<circle class="st2_progress-25 targetColor" cx="368.8" cy="157" r="27.5" style="fill: rgb(0, 71, 255);"/>
</g>
<g id="Arrow_progress-25">
	<path class="st3_progress-25" d="M54.1,317.6V336l129.3,84.1c0,0,69.9-52,114-115.1s62.3-116.2,62.3-116.2H380v-6.3l-26.9-8.8l-39.6,5.9v6.5&#10;&#9;&#9;l24.3,1.2c0,0-37,83.1-119.6,121.7S54.1,317.7,54.1,317.6L54.1,317.6z"/>
	<path class="st1_progress-25" d="M183.4,420.8c-0.1,0-0.3,0-0.4-0.1L53.7,336.6c-0.2-0.1-0.3-0.3-0.3-0.6v-18.4c0-0.2,0.1-0.4,0.3-0.6&#10;&#9;&#9;c0.2-0.1,0.4-0.2,0.6-0.1c0.8,0.3,82.2,29.4,163.6-8.6c76.8-35.9,114.5-111.2,118.9-120.4l-23.3-1.1c-0.4,0-0.7-0.3-0.7-0.7v-6.5&#10;&#9;&#9;c0-0.3,0.2-0.6,0.6-0.7l39.6-5.9c0.1,0,0.2,0,0.3,0l26.9,8.8c0.3,0.1,0.5,0.4,0.5,0.7v6.3c0,0.4-0.3,0.7-0.7,0.7l0,0h-19.8&#10;&#9;&#9;c-1.9,5.4-20.7,56.6-62.2,115.9c-43.7,62.4-113.5,114.7-114.2,115.2C183.7,420.7,183.5,420.8,183.4,420.8L183.4,420.8z M54.8,335.7&#10;&#9;&#9;l128.6,83.6c5.7-4.2,71.7-54.8,113.5-114.6c43.6-62.3,62-115.4,62.2-116c0.1-0.3,0.4-0.5,0.7-0.5h19.6V183l-26.2-8.6l-38.9,5.8v5.2&#10;&#9;&#9;l23.7,1.1c0.4,0,0.7,0.3,0.7,0.7c0,0.1,0,0.2-0.1,0.3c-0.4,0.8-38,83.8-120,122c-77.2,36.1-154.4,12.1-163.7,9L54.8,335.7&#10;&#9;&#9;L54.8,335.7z"/>
	<path class="st0_progress-25" d="M380,182.6h-22.3c0,0-19.2,45.3-50,88.6C258.3,340.7,184.5,396,184.5,396l-40.1-24l-38.9-23.4l-51.4-31&#10;&#9;&#9;c0,0,84.7,7.2,186.8-57.1c59.2-37.2,93.9-80.9,93.9-80.9h-21.3l55.9-26L380,182.6L380,182.6z"/>
	<path class="st1_progress-25" d="M184.5,396.6c-0.1,0-0.3,0-0.4-0.1L53.7,318.2c-0.3-0.2-0.4-0.5-0.3-0.8c0.1-0.3,0.4-0.5,0.7-0.5&#10;&#9;&#9;c0.8,0.1,85.6,6.4,186.4-57c53.1-33.4,86.9-72.5,92.8-79.6h-19.8c-0.3,0-0.6-0.2-0.7-0.6c-0.1-0.3,0.1-0.6,0.4-0.8l55.9-26&#10;&#9;&#9;c0.4-0.2,0.8,0,0.9,0.3c0,0,0,0,0,0.1l10.6,28.9c0.1,0.4-0.1,0.8-0.4,0.9c-0.1,0-0.2,0-0.2,0h-21.9c-2,4.7-21,47.7-49.9,88.3&#10;&#9;&#9;C259.4,340.4,185.7,396,185,396.5C184.9,396.6,184.7,396.6,184.5,396.6L184.5,396.6z M56.8,318.5l127.6,76.6&#10;&#9;&#9;c5.8-4.4,75.7-58.3,122.6-124.4c30.3-42.7,49.7-88,49.9-88.4c0.1-0.3,0.4-0.4,0.6-0.4H379l-10-27.2L316.7,179h18.1&#10;&#9;&#9;c0.3,0,0.5,0.2,0.6,0.4c0.1,0.2,0.1,0.5-0.1,0.7c-0.4,0.4-35.5,44.2-94.1,81.1c-52.9,33.2-100.9,47-131.9,52.7&#10;&#9;&#9;C82.7,318.8,63.7,318.8,56.8,318.5L56.8,318.5z"/>
	<path class="st1_progress-25" d="M183.4,420.8L183.4,420.8c-0.4,0-0.7-0.3-0.7-0.7l1.2-24.1c0.1-0.4,0.4-0.6,0.8-0.6c0.3,0.1,0.6,0.3,0.6,0.7&#10;&#9;&#9;l-1.2,24.1C184.1,420.5,183.8,420.8,183.4,420.8z"/>
	<path class="st1_progress-25" d="M359.7,189.6c-0.3,0-0.6-0.2-0.7-0.5l-2-6.3c-0.1-0.4,0-0.8,0.4-0.9c0.4-0.1,0.8,0,0.9,0.4c0,0,0,0,0,0.1&#10;&#9;&#9;l2,6.3c0.1,0.4-0.1,0.8-0.5,0.9L359.7,189.6L359.7,189.6z"/>
</g>
<path id="Shadow_progress-25" class="st3_progress-25" d="M203.4,333.8c-3.7,1.6-40,25.6-58.3,37.7l-38.9-23.3c12.5-5.6,33.8-14.8,41.2-15.5&#10;&#9;c10.6-1,40.3-6.9,51.2-12.4s46.2-29.6,53.3-26.3S208.4,331.7,203.4,333.8L203.4,333.8z"/>
<g id="Character_progress-25">
	<path class="st0_progress-25" d="M220.9,146.4c0,0,5,4.8,4.5,6.1s-3.2,1.1-3.2,1.1"/>
	<path class="st1_progress-25" d="M222.5,154.4h-0.4c-0.4,0-0.7-0.4-0.6-0.8c0-0.4,0.4-0.7,0.7-0.7c0,0,0,0,0,0c0.9,0.1,2.3-0.1,2.6-0.7&#10;&#9;&#9;c0-0.6-2-3.1-4.3-5.4c-0.3-0.3-0.3-0.7,0-1s0.7-0.3,1,0l0,0c2,1.9,5.3,5.4,4.7,6.9S223.5,154.4,222.5,154.4L222.5,154.4z"/>
	<path class="st0_progress-25" d="M218.4,139.1c2.8,1.4,3.1,5.7,3.6,8.3c0.8,3.8,1.6,7.5,2.2,11.3c0.4,2.4-5.7,3.9-7,3.4l3.1,9.2l-14.1-2&#10;&#9;&#9;l-1.2-7.9c0,0-2.5-7.9-1.2-13.3c0.9-3.4,2.8-6.5,5.3-8.9C209.1,139.2,215.6,137.7,218.4,139.1L218.4,139.1z"/>
	<path class="st1_progress-25" d="M220.3,172h-0.1l-14.1-2c-0.3,0-0.5-0.3-0.6-0.6l-1.2-7.9c-0.1-0.2-2.6-8-1.2-13.5c0.9-3.5,2.9-6.8,5.6-9.3&#10;&#9;&#9;c0.1-0.1,0.2-0.1,0.3-0.1c0.3-0.1,6.8-1.6,9.7-0.1l0,0c2.7,1.3,3.2,4.7,3.7,7.4c0.1,0.5,0.2,1,0.3,1.4c0.8,3.8,1.6,7.6,2.2,11.4&#10;&#9;&#9;c0.1,0.9-0.3,1.8-1,2.3c-1.7,1.2-3.6,1.9-5.6,2l2.8,8.2c0.1,0.2,0,0.5-0.1,0.7C220.8,172,220.6,172.1,220.3,172L220.3,172z&#10;&#9;&#9; M206.9,168.6l12.4,1.8l-2.7-8.1c-0.1-0.3,0-0.5,0.2-0.7c0.2-0.2,0.5-0.2,0.7-0.1c2,0.1,3.9-0.5,5.5-1.6c0.4-0.4,0.6-0.7,0.6-1&#10;&#9;&#9;c-0.6-3.8-1.4-7.6-2.2-11.3c-0.1-0.5-0.2-1-0.3-1.5c-0.4-2.4-0.9-5.4-3-6.4s-6.7-0.3-8.6,0.2c-2.4,2.3-4.1,5.2-5,8.4&#10;&#9;&#9;c-1.2,5.1,1.2,12.8,1.2,12.9L206.9,168.6L206.9,168.6z"/>
	<path class="st0_progress-25" d="M223.5,156c0,0-2.5,2.4-4.7-0.2"/>
	<path class="st1_progress-25" d="M221.1,157.7h-0.2c-1.1-0.1-2.1-0.6-2.7-1.5c-0.2-0.3-0.2-0.7,0.1-1c0.3-0.2,0.7-0.2,1,0.1&#10;&#9;&#9;c0.4,0.6,1,0.9,1.7,1c0.7,0,1.4-0.3,2-0.8c0.3-0.3,0.7-0.3,1,0c0,0,0,0,0,0c0.3,0.3,0.3,0.7,0,1&#10;&#9;&#9;C223.2,157.2,222.2,157.7,221.1,157.7L221.1,157.7z"/>
	<ellipse transform="matrix(0.9621 -0.2726 0.2726 0.9621 -31.353 65.0207)" class="st1_progress-25" cx="218.3" cy="145.3" rx="0.5" ry="1.4"/>
	<path class="st0_progress-25" d="M204.1,172.2l0.2-4.4l17-1l3.5,7.2C217.9,174.4,210.9,173.8,204.1,172.2L204.1,172.2z"/>
	<path class="st1_progress-25" d="M220.9,174.8c-5.7,0-11.3-0.7-16.9-1.9c-0.3-0.1-0.6-0.4-0.5-0.7l0.2-4.4c0-0.4,0.3-0.6,0.7-0.7l17-1&#10;&#9;&#9;c0.3,0,0.5,0.1,0.7,0.4l3.5,7.2c0.1,0.2,0.1,0.4,0,0.6c-0.1,0.2-0.3,0.3-0.5,0.4C225,174.7,223.4,174.8,220.9,174.8L220.9,174.8z&#10;&#9;&#9; M204.9,171.6c6.2,1.4,12.5,1.9,18.9,1.7l-2.9-5.8l-15.9,0.9L204.9,171.6z"/>
	<path class="st0_progress-25" d="M262.2,187.4c0,0,3.4-5.1,3.6-6.1s0.1-3.1,0.8-4.5s2.6-2.8,3.6-0.9c0,0,0.3-3.3,2.6-1.6c2,1.4,3,3.9,2.4,6.3&#10;&#9;&#9;c-0.5,2.5-8.9,15.5-8.9,15.5"/>
	<path class="st1_progress-25" d="M266.2,196.8c-0.1,0-0.3,0-0.4-0.1c-0.3-0.2-0.4-0.6-0.2-1c0,0,0,0,0,0c3.4-5.2,8.5-13.5,8.8-15.2&#10;&#9;&#9;c0.6-2.1-0.3-4.4-2.1-5.6c-0.4-0.3-0.7-0.4-0.9-0.3s-0.6,0.9-0.6,1.4c0,0.3-0.3,0.6-0.6,0.6c-0.3,0.1-0.6-0.1-0.8-0.4&#10;&#9;&#9;c-0.3-0.6-0.6-0.6-0.7-0.6c-0.7,0.2-1.3,0.7-1.6,1.4c-0.4,1-0.5,2-0.6,3c0,0.5-0.1,0.9-0.2,1.4c-0.2,1.1-2.9,5.1-3.7,6.3&#10;&#9;&#9;c-0.2,0.3-0.7,0.4-1,0.1c-0.3-0.2-0.4-0.6-0.2-0.9c1.3-1.9,2.5-3.8,3.5-5.9c0.1-0.4,0.1-0.8,0.1-1.2c0-1.2,0.3-2.3,0.7-3.4&#10;&#9;&#9;c0.5-1.2,1.6-2.1,2.9-2.3c0.4,0,0.7,0.1,1,0.3c0.2-0.5,0.6-1,1.1-1.2c0.8-0.3,1.7-0.1,2.3,0.5c2.2,1.6,3.3,4.3,2.6,7&#10;&#9;&#9;c-0.5,2.6-8.1,14.4-9,15.7C266.7,196.6,266.5,196.8,266.2,196.8L266.2,196.8z"/>
	<path class="st0_progress-25" d="M158.2,213.9c0,0-1.9,3.1-2.9,5.5c-0.8,2.3-1.4,4.6-1.7,7c-0.6-0.8-1.5-1.1-2.1-1.7c-0.2,1-0.5,2-1,2.9&#10;&#9;&#9;c-0.5,0.9-1.4,1.5-2.5,1.6c-0.5,0-1.1-0.2-1.6-0.4c-1.8-0.8-4.8-2.2-5-4.5c0-0.9,0.2-1.8,0.7-2.5c1.7-3.2,8.9-11.3,10-12.6"/>
	<path class="st1_progress-25" d="M147.9,229.8c-0.6,0-1.3-0.2-1.8-0.5c-1.6-0.7-5.2-2.2-5.4-5c0-1,0.3-2,0.8-2.9c1.9-3.6,10-12.6,10.1-12.7&#10;&#9;&#9;c0.3-0.2,0.8-0.1,1,0.2c0.2,0.2,0.2,0.5,0,0.8c-2.1,2.3-8.4,9.6-9.9,12.5c-0.4,0.6-0.6,1.4-0.6,2.1c0.1,1.8,2.5,3,4.6,3.9&#10;&#9;&#9;c0.4,0.2,0.8,0.3,1.3,0.4c0.8-0.1,1.5-0.6,1.9-1.3c0.4-0.8,0.8-1.7,0.9-2.7c0.1-0.3,0.3-0.5,0.5-0.5c0.3-0.1,0.5,0,0.7,0.2&#10;&#9;&#9;c0.2,0.3,0.5,0.5,0.8,0.6l0.2,0.2c0.3-2,0.9-4,1.6-5.9c1.1-2.4,2.9-5.4,3-5.6c0.2-0.3,0.6-0.4,1-0.2c0.3,0.2,0.4,0.6,0.2,0.9&#10;&#9;&#9;c0,0-1.9,3.1-2.9,5.4c-0.8,2.2-1.4,4.5-1.7,6.8c0,0.3-0.3,0.5-0.5,0.6c-0.3,0.1-0.6,0-0.7-0.3c-0.3-0.3-0.6-0.6-0.9-0.8l-0.2-0.1&#10;&#9;&#9;c-0.2,0.7-0.4,1.4-0.8,2C150.4,229,149.2,229.7,147.9,229.8L147.9,229.8L147.9,229.8z"/>
	<path class="st1_progress-25" d="M239.9,290.6c0,0-1.4,9.7,2.6,11.1s24.5-14.9,23.1-18.5s-8.4-4.9-14.7,0C247.4,285.9,243.7,288.4,239.9,290.6&#10;&#9;&#9;L239.9,290.6z"/>
	<path class="st1_progress-25" d="M243,302.5c-0.3,0-0.5,0-0.8-0.1c-4.4-1.6-3.2-10.8-3.1-11.8c0-0.2,0.2-0.4,0.4-0.5c3.8-2.2,7.4-4.7,10.9-7.4&#10;&#9;&#9;c3.7-2.9,8.1-4,11.7-3c1.8,0.4,3.3,1.6,4.1,3.3c0.2,0.5,0.8,1.9-3.7,6.5C257.9,294.2,247.3,302.5,243,302.5z M240.5,291.1&#10;&#9;&#9;c-0.3,2.8-0.5,9,2.2,10c2.2,0.8,12.6-6.1,18.8-12.6c3-3.1,3.5-4.6,3.4-5c-0.6-1.3-1.8-2.2-3.2-2.5c-2.5-0.7-6.5-0.3-10.5,2.8&#10;&#9;&#9;C247.9,286.4,244.3,288.9,240.5,291.1L240.5,291.1z"/>
	<path class="st0_progress-25" d="M198.6,246.9c0,0,24.5,6.6,42.8,3.2l-1.6,40.5c0,0,6.9,2.5,14.5-7.2c0,0,7.3-49.7,2.6-52.1s-47.9,0.4-47.9,0.4&#10;&#9;&#9;L198.6,246.9L198.6,246.9z"/>
	<path class="st1_progress-25" d="M241.8,291.6c-0.8,0-1.7-0.1-2.4-0.4c-0.3-0.1-0.5-0.4-0.5-0.7l1.6-39.5c-18.1,3-41.9-3.3-42.2-3.4&#10;&#9;&#9;c-0.4-0.1-0.6-0.5-0.5-0.9c0-0.1,0.1-0.2,0.1-0.2l10.2-15.2c0.1-0.2,0.3-0.3,0.6-0.3c4.4-0.3,43.6-2.8,48.3-0.4&#10;&#9;&#9;c4.9,2.5-1,44.5-2.2,52.9c0,0.1-0.1,0.2-0.1,0.3C249.5,290.5,244.7,291.6,241.8,291.6L241.8,291.6z M240.4,290c1.6,0.3,7,0.7,13-7&#10;&#9;&#9;c3.5-24.1,5.6-49.9,2.9-51.2c-3.7-1.9-35-0.3-47.2,0.5l-9.4,14.1c4.7,1.2,25.6,5.9,41.4,3c0.2,0,0.4,0,0.6,0.2&#10;&#9;&#9;c0.2,0.1,0.3,0.4,0.2,0.6L240.4,290L240.4,290z"/>
	<path class="st0_progress-25" d="M185,239.8c0,0-6.4,39.6-7.7,40.2s-36.4,31.1-36.4,31.1l10.4,9.1c0,0,39.2-23.7,41.4-30.7s19.7-49.8,19.7-49.8&#10;&#9;&#9;L185,239.8z"/>
	<path class="st1_progress-25" d="M151.3,321c-0.2,0-0.3-0.1-0.5-0.2l-10.4-9.1c-0.2-0.1-0.2-0.3-0.2-0.5c0-0.2,0.1-0.4,0.2-0.5&#10;&#9;&#9;c5.7-5,33.7-29.2,36.4-31.1c1-2,5.1-25.4,7.5-39.8c0.1-0.3,0.4-0.6,0.7-0.6h27.4c0.2,0,0.5,0.1,0.6,0.3c0.1,0.2,0.2,0.5,0.1,0.7&#10;&#9;&#9;c-0.2,0.4-17.5,42.8-19.7,49.7c-2.3,7.2-40.1,30.2-41.7,31.2C151.6,321,151.4,321,151.3,321L151.3,321z M142,311.2l9.4,8.2&#10;&#9;&#9;c11.2-6.8,38.9-24.6,40.7-30c2-6.4,16.6-42.2,19.3-48.8h-25.7c-6.4,39.4-7.6,40-8,40.2C176.5,281.4,155.9,299.1,142,311.2&#10;&#9;&#9;L142,311.2z M177.3,280.1L177.3,280.1z"/>
	<path class="st1_progress-25" d="M170.6,277.2c0,0,22.3,15.2,35.3,12.5c37.5-7.6,56.6-59.4,56.6-59.4s-25.2-3.4-38.6-6.7L185,236L170.6,277.2&#10;&#9;&#9;L170.6,277.2z"/>
	<path class="st1_progress-25" d="M202.6,290.7c-13.2,0-31.6-12.4-32.4-13c-0.3-0.2-0.4-0.5-0.3-0.8l14.5-41.2c0.1-0.2,0.2-0.4,0.4-0.4&#10;&#9;&#9;l38.9-12.4c0.1,0,0.3,0,0.4,0c13.2,3.3,38.3,6.7,38.5,6.7c0.2,0,0.4,0.1,0.5,0.3c0.1,0.2,0.1,0.4,0.1,0.6&#10;&#9;&#9;c-0.2,0.5-19.7,52.3-57.2,59.9C204.9,290.6,203.7,290.7,202.6,290.7L202.6,290.7z M171.4,276.9c3.2,2.1,22.8,14.5,34.3,12.1&#10;&#9;&#9;c34.1-6.9,53.2-51.6,55.8-58.2c-4.6-0.6-25.7-3.6-37.6-6.6l-38.4,12.3L171.4,276.9L171.4,276.9z"/>
	<path class="st2_progress-25 targetColor" d="M234.1,180.8c0,0-2-8.2-26.4-10.8c-5.9-0.7-11.9,0.1-17.4,2.3c-0.6,3.8-6.4,50.8-8.9,63.7&#10;&#9;&#9;c0,0,32.9,7.2,46.1-11.5C227.4,224.5,232.2,184.9,234.1,180.8z" style="fill: rgb(0, 71, 255);"/>
	<path class="st2_progress-25 targetColor" d="M205.9,178.9c0,0-24.8,2.9-31.1,5.9s-27.4,26.5-27.4,26.5l9.6,9.2c0,0,16.3-15.9,20.9-17.9s23.3,2,23.3,2&#10;&#9;&#9;L205.9,178.9z" style="fill: rgb(0, 71, 255);"/>
	<path class="st2_progress-25 targetColor" d="M234.1,180.8l13.6,22.8l14.8-18.9l7.8,8.6c0,0-13,25.6-19.4,25.5c-13.7-0.3-32-18.5-32-18.5L234.1,180.8&#10;&#9;&#9;L234.1,180.8z" style="fill: rgb(0, 71, 255);"/>
	<path class="st1_progress-25" d="M151.3,320.3c-0.8-9.4-5-12.1-8.1-11.1s-5.2,1.3-4.3,10.4s5.8,22.1,10.7,21S152.1,329.6,151.3,320.3z"/>
	<path class="st1_progress-25" d="M149,341.4c-0.9,0-1.8-0.3-2.5-0.9c-4.1-2.9-7.6-13.1-8.3-20.8c-0.8-8.9,1-9.9,4.4-11l0.4-0.1&#10;&#9;&#9;c1.5-0.5,3-0.2,4.3,0.7c2.6,1.7,4.3,5.6,4.7,11c0.2,2,0.4,4,0.6,5.9c0.9,7.5,1.7,14-2.8,15.1C149.5,341.3,149.3,341.4,149,341.4&#10;&#9;&#9;L149,341.4z M144.4,309.7c-0.3,0-0.7,0.1-1,0.2l-0.4,0.1c-2.6,0.9-4.2,1.4-3.4,9.6c0.7,7.2,4,17.1,7.7,19.8&#10;&#9;&#9;c0.6,0.5,1.4,0.7,2.1,0.6c3.3-0.8,2.6-6.7,1.8-13.6c-0.2-2-0.5-4-0.6-6c-0.5-6.7-2.8-9.1-4.1-10&#10;&#9;&#9;C145.9,309.9,145.2,309.7,144.4,309.7L144.4,309.7z"/>
	<path class="st0_progress-25" d="M214.9,132.3c-6.2-1.4-14.1,0.4-19.2,4c-1.8,1.2-3.4,2.8-4.5,4.7c-3.2,5.6-1,12.5-3,18.5s-8.7,10.5-13.2,14.7&#10;&#9;&#9;c-5,4.8-9.9,9.9-13,16.2c-5,10.4-2.2,20,4.9,28.4c1,1.2,2.1,2.3,3.3,3.1c2.5,1.5,5.3,2.4,8.2,2.6c5.4,0.7,13.2,1.2,17.9-2.1&#10;&#9;&#9;c3.4-2.4,6-7.9,6.2-11.9s-1.5-8.4-0.3-12.4c1.7-5.9,8.9-9,10.6-14.9c1.2-4.3-0.8-8.8-3.3-12.5c-1.9-2.8-4.3-6.1-3.3-9.3&#10;&#9;&#9;c0.6-1.9,2.3-3.3,3.6-4.9c1.6-2,2.4-4.5,2.6-7c0.1-2.3-1-4.3-0.9-6.5c1.9,0.9,4.1,0,6.1-0.2c2.4-0.3,4.9-0.6,7.3-1&#10;&#9;&#9;c-0.5-2.6-1.9-4.9-3.9-6.5C219.2,133.8,217.1,132.7,214.9,132.3L214.9,132.3z"/>
	<path class="st1_progress-25" d="M185.8,225.7c-2.4,0-4.9-0.2-7.3-0.6c-3-0.2-5.9-1.2-8.5-2.7c-1.3-0.9-2.5-2-3.5-3.3c-8.1-9.6-9.8-19.4-5-29.2&#10;&#9;&#9;c3.1-6.4,8.1-11.6,13.1-16.4c1-1,2.2-2,3.4-3c3.8-3.3,8.1-7,9.6-11.4c0.7-2.6,1.1-5.2,1-7.9c0.1-3.6,0.2-7.3,2.1-10.7&#10;&#9;&#9;c1.2-2,2.8-3.7,4.7-4.9c5.5-3.9,13.6-5.6,19.8-4.1c2.4,0.6,4.6,1.6,6.4,3.2c2.2,1.7,3.6,4.2,4.2,6.9c0,0.2,0,0.4-0.1,0.5&#10;&#9;&#9;c-0.1,0.1-0.3,0.2-0.5,0.3c-2.4,0.4-4.9,0.7-7.3,1c-0.5,0-1,0.1-1.5,0.2c-1.3,0.3-2.6,0.4-3.9,0.2c0.1,0.7,0.2,1.3,0.4,2&#10;&#9;&#9;c0.3,1.1,0.5,2.3,0.5,3.5c-0.1,2.7-1.1,5.3-2.7,7.4c-0.4,0.5-0.8,0.9-1.2,1.4c-1,0.9-1.7,2-2.2,3.3c-0.9,2.8,1.1,5.7,2.9,8.3&#10;&#9;&#9;l0.3,0.4c3.3,4.9,4.5,9.3,3.4,13.1c-0.9,3.1-3.2,5.5-5.5,7.8s-4.3,4.4-5.1,7.2c-0.6,2.3-0.3,4.6,0,7.1c0.3,1.7,0.4,3.4,0.4,5.1&#10;&#9;&#9;c-0.2,3.9-2.7,9.8-6.5,12.4c-3,2.1-7.1,2.7-11.1,2.7L185.8,225.7z M210.4,132.5c-5.1,0-10.1,1.5-14.3,4.4c-1.7,1.2-3.2,2.7-4.3,4.5&#10;&#9;&#9;c-1.7,3-1.8,6.4-1.9,10c0.1,2.8-0.3,5.6-1,8.3c-1.6,4.8-6.1,8.6-10,12c-1.2,1-2.3,2-3.3,2.9c-4.9,4.6-9.8,9.8-12.8,16&#10;&#9;&#9;c-4.5,9.3-2.8,18.6,4.9,27.7c0.9,1.1,2,2.2,3.2,3c2.4,1.4,5.1,2.3,7.9,2.5c3,0.4,12.3,1.6,17.4-1.9c3.3-2.3,5.7-7.7,5.9-11.4&#10;&#9;&#9;c0-1.6-0.1-3.3-0.4-4.9c-0.3-2.5-0.7-5.1,0.1-7.7c0.9-3.1,3.2-5.5,5.5-7.8s4.3-4.4,5.1-7.2c1-3.4-0.1-7.4-3.2-11.9l-0.3-0.4&#10;&#9;&#9;c-2-2.9-4.2-6.1-3.1-9.5c0.6-1.4,1.4-2.7,2.5-3.8c0.4-0.4,0.8-0.9,1.1-1.3c1.5-1.9,2.3-4.2,2.4-6.6c0-1.1-0.2-2.1-0.4-3.1&#10;&#9;&#9;c-0.3-1.1-0.5-2.2-0.5-3.4c0-0.2,0.1-0.4,0.3-0.6c0.2-0.1,0.5-0.1,0.7,0c1.2,0.6,2.7,0.3,4.1,0c0.6-0.1,1.1-0.2,1.6-0.3&#10;&#9;&#9;c2.1-0.2,4.3-0.5,6.5-0.8c-0.6-2.1-1.8-4-3.5-5.4c-1.7-1.4-3.7-2.4-5.9-2.9l0,0C213.3,132.6,211.9,132.5,210.4,132.5L210.4,132.5z"/>
	<path class="st0_progress-25" d="M215.3,150.7c-0.1-1-0.5-1.9-1.2-2.6c-0.4-0.6-0.9-1.2-1.4-1.7c-0.6-0.5-1.3-0.7-2.1-0.6&#10;&#9;&#9;c-0.6,0.2-1.2,0.6-1.5,1.2c-0.3,0.6-0.4,1.3-0.4,1.9c0,2.9,1.5,5.7,4,7.2l-0.2-0.2"/>
	<path class="st1_progress-25" d="M212.7,156.9c-0.1,0-0.2,0-0.4-0.1c-2.7-1.6-4.4-4.6-4.4-7.8c0-0.8,0.2-1.5,0.5-2.2c0.4-0.8,1.1-1.4,1.9-1.6&#10;&#9;&#9;c1-0.2,1.9,0.1,2.7,0.7c0.6,0.5,1.2,1.2,1.6,1.9c0.7,0.9,1.2,1.9,1.3,3c0,0.4-0.3,0.7-0.7,0.7c0,0,0,0,0,0c-0.4,0-0.7-0.3-0.7-0.7&#10;&#9;&#9;c-0.1-0.8-0.5-1.6-1-2.2c-0.4-0.6-0.8-1.1-1.3-1.6c-0.4-0.4-1-0.5-1.5-0.4c-0.4,0.1-0.8,0.5-1,0.9c-0.2,0.5-0.4,1.1-0.4,1.6&#10;&#9;&#9;c0,2.5,1.2,4.8,3.2,6.3c0.2,0,0.3,0.1,0.4,0.2l0.2,0.2c0.3,0.3,0.3,0.7,0,1C213.1,156.9,213,157,212.7,156.9L212.7,156.9z"/>
	<path class="st1_progress-25" d="M248.2,219.5H248c-13.9-2.6-29-20.2-29.6-21c-0.3-0.3-0.2-0.7,0.1-1s0.7-0.2,1,0.1c0.1,0.2,15.4,18,28.8,20.5&#10;&#9;&#9;c0.4,0.1,0.6,0.4,0.6,0.8c0,0,0,0,0,0C248.8,219.3,248.5,219.5,248.2,219.5L248.2,219.5z"/>
	<path class="st1_progress-25" d="M217.2,162.1l-6.6-1.6c0.8,1.7,2.1,3,3.8,3.7c2.6,1.3,3.8,0.9,3.8,0.9L217.2,162.1z"/>
	<path class="st1_progress-25" d="M217.6,165.8c-1.2-0.1-2.4-0.4-3.5-1c-1.9-0.8-3.3-2.2-4.2-4.1c-0.1-0.4,0.1-0.8,0.5-0.9c0.1,0,0.2,0,0.4,0&#10;&#9;&#9;l6.6,1.6c0.2,0.1,0.4,0.2,0.5,0.5l1,2.9c0.1,0.4-0.1,0.8-0.4,0.9C218.2,165.8,217.9,165.8,217.6,165.8L217.6,165.8z M212.1,161.6&#10;&#9;&#9;c0.7,0.8,1.6,1.5,2.6,2c0.8,0.4,1.6,0.7,2.5,0.8l-0.6-1.7L212.1,161.6L212.1,161.6z"/>
</g>
</svg>