<svg width="1024" height="344" viewBox="0 0 1024 344" fill="none" xmlns="http://www.w3.org/2000/svg">
<path d="M274.022 256.378C274.022 256.378 273.818 241.427 320.307 216.646C366.797 191.866 437.043 198.419 461.619 213.165C486.195 227.91 498.278 230.778 508.314 263.341C514.458 284.026 517.734 305.325 517.939 326.829H266.24L274.022 256.378Z" fill="#0047FF"/>
<path d="M362.291 282.797C367.821 287.302 392.602 291.808 398.336 290.374C413.491 286.483 429.466 281.158 438.886 267.846C444.211 260.474 446.669 251.258 448.717 242.246C450.97 231.802 452.813 220.538 449.946 210.298C439.705 175.482 386.048 171.795 359.219 185.926C320.512 206.406 335.257 260.269 362.291 282.797Z" fill="white"/>
<path d="M395.059 292.013C385.638 292.013 366.387 287.917 361.472 283.821C343.654 268.87 332.186 242.042 334.643 220.128C335.872 204.973 344.883 191.661 358.4 184.698C376.832 174.867 404.89 174.048 425.165 182.65C438.682 188.384 447.693 197.805 451.174 209.888C454.246 220.538 452.403 231.802 450.15 242.656C448.307 251.053 445.85 260.883 440.115 268.666C430.694 281.978 414.72 287.507 398.746 291.603C397.517 292.013 396.288 292.218 395.059 292.013ZM363.315 281.773C368.23 285.869 392.397 290.374 397.926 288.941C413.286 285.05 428.851 279.52 437.658 267.027C442.982 259.45 445.44 250.234 447.078 242.042C449.331 231.597 451.174 220.538 448.307 210.707C445.03 199.443 436.634 190.637 423.936 185.107C404.685 176.915 377.242 177.939 359.629 187.155C346.931 193.504 338.534 206.202 337.306 220.333C335.053 241.632 346.112 267.437 363.315 281.773Z" fill="#1C1A27"/>
<path d="M375.808 56.9024C349.798 61.408 326.451 77.1776 326.861 106.259C327.27 124.077 336.691 140.666 350.208 152.339C369.869 169.542 398.746 176.301 422.912 166.675C443.392 158.483 458.957 138.003 460.186 115.885C461.21 98.272 453.427 69.6 434.995 63.2512C428.032 60.7936 419.226 66.3232 419.226 66.3232C415.539 56.288 386.662 55.0592 375.808 56.9024Z" fill="white"/>
<path d="M399.565 172.41C381.133 172.41 363.315 165.651 349.184 153.568C334.438 140.666 325.837 123.462 325.427 106.464C325.018 80.2496 343.654 61.408 375.398 55.6736C386.253 53.8304 413.901 54.8545 419.43 64.6849C422.298 63.2513 429.056 60.1792 434.995 62.2272C453.632 68.576 462.234 97.6576 461.21 116.294C459.981 138.618 444.416 159.917 423.117 168.314C415.744 171.181 407.552 172.614 399.565 172.41ZM386.253 57.5169C382.771 57.5169 379.29 57.7216 375.808 58.336C345.498 63.6608 327.475 81.6832 327.885 106.464C328.09 122.848 336.486 139.232 350.618 151.725C370.483 169.133 399.36 174.867 422.093 165.856C442.368 157.869 457.318 137.389 458.547 116.09C459.571 98.4768 451.584 70.8289 434.176 64.6849C427.827 62.4321 419.635 67.7569 419.43 67.7569C419.021 67.9617 418.611 67.9616 418.202 67.9616C417.792 67.7568 417.587 67.5521 417.382 67.1425C415.539 59.9745 398.95 57.5169 386.253 57.5169Z" fill="#1C1A27"/>
<path d="M421.888 194.528L422.093 232.416C422.093 232.416 418.202 253.715 395.059 247.162C381.338 243.066 369.869 233.235 364.339 219.923C364.339 219.923 362.496 139.846 361.882 115.68C389.939 115.27 420.864 97.248 420.864 97.248C420.864 97.248 430.49 111.789 434.79 116.294C438.067 119.776 441.139 123.667 443.392 127.763C447.283 135.136 447.078 144.147 446.874 152.339C446.874 161.965 445.85 171.59 444.006 181.011C440.525 199.034 421.888 194.528 421.888 194.528Z" fill="white"/>
<path d="M403.251 249.824C400.384 249.824 397.517 249.414 394.65 248.595C380.314 244.499 368.845 234.259 363.11 220.538C363.11 220.333 363.11 220.333 363.11 220.128C363.11 219.309 361.267 139.846 360.653 115.885C360.653 115.475 360.858 115.27 361.062 114.861C361.267 114.656 361.677 114.451 361.882 114.451C389.325 114.042 419.84 96.224 420.25 96.0192C420.864 95.6096 421.683 95.8145 422.093 96.4289C422.093 96.6337 431.718 110.97 435.814 115.27C439.296 118.752 442.163 122.643 444.621 126.944C448.717 134.726 448.512 144.352 448.307 152.134C448.307 161.76 447.283 171.386 445.44 181.011C444.621 185.926 441.958 190.227 437.658 193.094C433.152 195.552 428.032 196.576 422.912 195.757L423.117 232.211C421.888 238.15 418.611 243.27 413.696 246.547C410.829 248.8 407.142 249.824 403.251 249.824ZM365.773 219.718C371.302 232.416 382.157 242.042 395.469 245.933C402.432 247.776 407.962 247.366 412.467 244.704C416.563 241.632 419.635 237.331 420.659 232.211L420.454 194.528C420.454 194.118 420.659 193.709 420.864 193.504C421.274 193.299 421.683 193.094 421.888 193.299C421.888 193.299 430.08 195.142 436.224 191.251C439.706 188.794 442.163 185.107 442.778 180.806C444.621 171.386 445.44 161.965 445.645 152.339C445.85 144.557 446.054 135.546 442.163 128.378C439.91 124.282 437.043 120.595 433.766 117.114C430.08 113.222 422.707 102.368 420.454 98.8865C414.72 101.958 388.096 116.09 363.11 116.909C363.93 141.894 365.568 215.213 365.773 219.718Z" fill="#1C1A27"/>
<path d="M421.683 213.165C421.683 213.165 406.323 213.779 396.288 203.539C386.253 193.299 387.891 182.854 387.891 182.854C387.891 182.854 404.48 194.118 421.888 194.528L421.683 213.165Z" fill="#1C1A27"/>
<path d="M420.864 214.598C417.587 214.598 404.275 213.984 395.264 204.563C385.024 193.914 386.458 183.264 386.458 182.854C386.458 182.445 386.867 182.035 387.277 181.83C387.686 181.626 388.096 181.626 388.506 182.035C388.71 182.035 405.094 193.094 421.888 193.299C422.502 193.299 423.117 193.914 423.117 194.528L422.912 213.165C422.912 213.779 422.298 214.394 421.683 214.394L420.864 214.598ZM389.12 185.312C389.53 191.866 392.602 198.214 397.312 202.72C405.094 210.912 416.768 211.936 420.454 211.936L420.659 195.757C406.733 195.142 393.83 188.179 389.12 185.312Z" fill="#1C1A27"/>
<path d="M406.938 133.907C406.938 133.907 419.226 152.134 416.359 155.411C413.491 158.688 405.299 156.435 405.299 156.435" fill="white"/>
<path d="M410.624 158.483C408.781 158.483 406.733 158.278 404.89 157.664C404.275 157.459 403.866 156.845 404.07 156.026C404.275 155.411 404.89 155.002 405.504 155.206C407.347 155.616 413.286 156.64 415.334 154.592C416.563 153.363 412.058 143.942 405.914 134.726C405.504 134.317 405.299 133.498 405.914 132.883C406.323 132.474 407.142 132.269 407.757 132.883C407.962 133.088 407.962 133.088 407.962 133.293C411.853 139.027 420.454 152.749 417.178 156.23C415.334 157.869 413.082 158.688 410.624 158.483Z" fill="#1C1A27"/>
<path d="M423.049 132.051C424.179 132.007 425.027 130.23 424.943 128.083C424.858 125.935 423.874 124.231 422.743 124.275C421.613 124.319 420.765 126.096 420.85 128.244C420.934 130.391 421.919 132.096 423.049 132.051Z" fill="#1C1A27"/>
<path d="M389.783 127.27C389.847 125.122 388.982 123.353 387.851 123.32C386.721 123.286 385.752 125 385.689 127.148C385.625 129.297 386.49 131.065 387.62 131.099C388.751 131.132 389.719 129.418 389.783 127.27Z" fill="#1C1A27"/>
<path d="M369.869 140.666C365.773 134.931 359.629 124.691 351.232 127.763C348.979 128.582 347.136 130.221 345.498 132.064C338.739 140.051 339.763 150.701 344.269 159.507C348.16 167.085 360.243 178.554 368.435 168.928" fill="white"/>
<path d="M361.062 173.843C360.653 173.843 360.243 173.843 359.834 173.843C352.256 173.024 345.498 164.832 343.04 160.122C337.715 149.472 338.125 138.618 344.474 131.245C346.112 129.197 348.16 127.558 350.618 126.534C359.219 123.258 365.773 132.474 369.869 138.413L370.893 139.846C371.302 140.461 371.098 141.28 370.688 141.69C370.074 142.099 369.254 141.894 368.845 141.485L367.821 140.051C363.93 134.317 358.4 126.534 351.642 128.992C349.594 129.811 347.75 131.04 346.522 132.883C340.992 139.437 340.582 149.267 345.498 158.893C347.955 163.603 353.894 170.566 360.243 171.181C363.11 171.59 365.773 170.362 367.616 168.109C368.026 167.494 368.845 167.494 369.459 167.904C370.073 168.314 370.074 169.133 369.664 169.747C367.206 172.41 364.134 173.843 361.062 173.843Z" fill="#1C1A27"/>
<path d="M408.371 176.301C407.757 176.301 406.937 176.301 406.323 176.096C394.24 174.662 385.843 162.374 385.433 161.76C385.229 161.146 385.433 160.326 386.048 160.122C386.457 159.917 387.072 160.122 387.481 160.326C387.481 160.531 395.673 172.41 406.528 173.638C411.853 174.253 417.178 172.205 422.093 167.494C422.502 167.085 423.321 166.88 423.936 167.494C424.345 167.904 424.55 168.723 423.936 169.338C423.936 169.338 423.936 169.338 423.731 169.338C419.84 173.638 414.31 176.096 408.371 176.301Z" fill="#1C1A27"/>
<path d="M315.187 328.262C314.368 328.262 313.754 327.648 313.754 326.829V267.232C313.754 266.413 314.368 265.798 315.187 265.798C316.006 265.798 316.621 266.413 316.621 267.232V326.829C316.621 327.648 316.006 328.262 315.187 328.262Z" fill="#1C1A27"/>
<path d="M466.739 328.467C466.125 328.467 465.51 328.058 465.306 327.238L453.632 265.184C453.427 264.365 454.042 263.75 454.861 263.546C455.68 263.341 456.294 263.955 456.499 264.774L468.173 326.829C468.378 327.648 467.763 328.262 466.944 328.467H466.739Z" fill="#1C1A27"/>
<path d="M395.879 242.656C395.879 242.656 363.725 276.653 365.363 310.035L419.431 316.179C419.431 316.179 409.6 257.197 415.744 242.451L395.879 242.656Z" fill="white"/>
<path d="M419.43 317.613L365.158 311.469C364.544 311.469 363.93 310.854 363.93 310.035C362.291 276.448 393.421 243.066 394.854 241.632C395.059 241.427 395.469 241.222 395.878 241.222L415.744 240.813C416.154 240.813 416.768 241.018 416.973 241.427C417.178 241.837 417.382 242.246 417.178 242.861C411.238 257.197 420.864 315.36 421.069 315.974C421.274 316.794 420.659 317.408 419.84 317.613C419.635 317.613 419.43 317.613 419.43 317.613ZM366.797 308.602L417.792 314.541C416.154 304.71 409.395 259.654 413.696 243.885L396.493 244.09C392.806 248.186 365.978 278.701 366.797 308.602Z" fill="#1C1A27"/>
<path d="M392.397 280.749H392.192C391.373 280.749 390.963 279.93 390.963 279.11C392.602 267.846 396.902 257.197 403.456 247.776C403.866 247.162 404.89 246.957 405.504 247.571C406.118 247.981 406.323 249.005 405.709 249.619C399.36 258.63 395.469 268.87 393.83 279.52C393.626 280.339 393.011 280.749 392.397 280.749Z" fill="#D1D3D4"/>
<path d="M424.55 254.739C424.346 254.739 424.141 254.739 423.936 254.739C423.117 254.33 422.912 253.51 423.117 252.896C426.189 246.342 428.442 239.584 430.285 232.826C432.128 226.067 431.923 218.899 429.875 212.141C429.67 211.322 430.08 210.502 430.694 210.298C431.514 210.093 432.333 210.502 432.538 211.117C434.79 218.285 434.79 226.067 432.947 233.235C431.104 240.403 428.646 247.162 425.574 253.92C425.574 254.534 424.96 254.739 424.55 254.739Z" fill="#D1D3D4"/>
<path d="M392.806 139.642H376.627C370.893 139.642 366.387 135.136 366.387 129.402V118.342C366.387 117.523 367.002 116.909 367.821 116.909H401.613C402.432 116.909 403.046 117.523 403.046 118.342V129.402C403.046 134.931 398.541 139.642 392.806 139.642ZM369.254 119.776V129.402C369.254 133.498 372.531 136.774 376.627 136.774H392.806C396.902 136.774 400.179 133.498 400.179 129.402V119.776H369.254Z" fill="#1C1A27"/>
<path d="M432.947 139.642H416.768C411.034 139.642 406.528 135.136 406.528 129.402V118.342C406.528 117.523 407.142 116.909 407.962 116.909H441.754C442.573 116.909 443.187 117.523 443.187 118.342V129.402C443.187 134.931 438.682 139.642 432.947 139.642ZM409.395 119.776V129.402C409.395 133.498 412.672 136.774 416.768 136.774H432.947C437.043 136.774 440.32 133.498 440.32 129.402V119.776H409.395Z" fill="#1C1A27"/>
<path d="M416.768 119.776H399.155C398.336 119.776 397.722 119.162 397.722 118.342C397.722 117.523 398.336 116.909 399.155 116.909H416.768C417.587 116.909 418.202 117.523 418.202 118.342C418.202 119.162 417.587 119.776 416.768 119.776Z" fill="#1C1A27"/>
<path d="M146.227 200.058C146.227 200.058 96.0512 201.696 76.3904 237.946C56.7296 274.195 55.9104 327.034 55.9104 327.034H284.672C284.672 327.034 259.072 239.994 224.666 219.309C190.259 198.624 146.227 200.058 146.227 200.058Z" fill="#0047FF"/>
<path d="M90.5216 313.312C90.3168 313.312 90.112 313.312 89.9072 313.107C89.2928 312.698 88.8832 311.878 89.2928 311.264C90.3168 309.216 101.786 267.846 109.158 240.608C109.363 239.789 110.182 239.379 111.002 239.584C111.821 239.789 112.23 240.608 112.026 241.222C109.978 248.186 92.9792 310.035 91.9552 312.288C91.7504 312.902 91.136 313.312 90.5216 313.312Z" fill="#1C1A27"/>
<path d="M173.261 71.4432C173.261 71.4432 185.958 39.2896 153.395 31.0976C120.832 22.9056 90.9312 44.4096 94.6176 73.0816C98.304 101.754 120.218 102.368 120.218 102.368L173.261 71.4432Z" fill="white"/>
<path d="M120.218 103.802C120.013 103.802 97.0752 102.982 93.184 73.2864C91.3408 60.7936 96.0512 48.3008 105.677 40.1088C117.965 29.2544 135.782 25.3632 153.6 29.664C163.43 32.1216 170.394 37.0368 174.08 44.2048C180.429 56.6976 174.899 71.2384 174.694 72.0576C174.49 72.2624 174.285 72.672 174.08 72.8768L121.037 103.802C120.832 103.597 120.422 103.802 120.218 103.802ZM139.059 30.8928C127.386 30.688 116.326 34.784 107.52 42.3616C98.7136 49.9392 94.208 61.6128 95.8464 73.0816C99.328 98.4768 116.941 100.73 119.808 100.934L172.032 70.4192C172.851 67.9616 176.742 55.6736 171.418 45.4336C168.141 39.0848 161.792 34.784 152.781 32.5312C148.48 31.3024 143.77 30.8928 139.059 30.8928Z" fill="#1C1A27"/>
<path d="M125.543 74.72C130.458 71.648 135.783 69.6 141.312 68.576C156.672 65.504 174.285 68.1664 184.935 79.6352C179.815 75.744 172.851 78.816 166.707 80.864C161.383 82.7072 155.853 83.5264 150.528 85.1648C143.36 87.4176 136.807 90.8992 130.867 95.4048C127.386 98.0672 119.194 109.741 115.098 109.536C107.52 108.922 110.797 95.8144 112.231 91.9232C114.893 84.7551 119.399 78.816 125.543 74.72Z" fill="#D1D3D4"/>
<path d="M115.712 110.97H115.507C113.664 110.97 111.821 109.946 110.797 108.307C107.315 103.187 111.002 92.5376 111.411 91.3088C113.869 83.936 118.579 77.792 124.928 73.4912C129.843 70.4192 135.578 68.1664 141.312 67.1424C155.238 64.2752 174.285 65.9136 186.368 78.6112C186.982 79.2256 186.982 80.0448 186.368 80.6592C185.754 81.2736 184.934 81.2736 184.32 80.6592C180.224 77.5872 174.49 79.6352 168.96 81.4784L167.322 82.0928C164.454 83.1168 161.382 83.936 158.515 84.5504C156.058 85.1648 153.6 85.7792 151.347 86.3936C144.384 88.6464 137.83 91.9232 132.096 96.4288C130.458 97.8624 128.819 99.5008 127.386 101.344C122.47 107.078 118.784 110.97 115.712 110.97ZM153.19 68.9856C149.299 68.9856 145.408 69.3952 141.722 70.2144C136.397 71.2384 131.072 73.0816 126.362 76.1536C120.627 80.0448 116.122 85.7792 114.074 92.5376C112.64 96.6336 111.206 104.006 113.254 106.874C113.869 107.693 114.688 108.307 115.712 108.307C117.555 108.307 122.47 102.982 125.338 99.9104C126.976 97.8624 128.614 96.224 130.458 94.5856C136.397 89.8752 143.36 86.3936 150.528 84.1408C152.986 83.3216 155.443 82.7072 157.901 82.0928C160.768 81.4784 163.635 80.6592 166.502 79.6352L168.141 79.2256C171.622 77.792 175.309 76.9728 179.2 76.5632C171.213 71.2384 162.202 68.7808 153.19 68.9856Z" fill="#1C1A27"/>
<path d="M206.029 81.888C188.621 72.2624 165.274 70.624 146.227 76.3584C127.181 82.0928 115.098 97.6576 110.592 116.909C107.52 130.221 105.062 150.496 115.917 160.326C127.795 171.181 141.926 176.915 157.901 179.578C174.285 182.035 194.56 181.83 208.077 171.181C221.594 160.531 230.605 141.69 231.014 125.101C231.834 104.416 221.184 90.2848 206.029 81.888Z" fill="white"/>
<path d="M174.08 182.24C168.551 182.24 163.021 181.83 157.696 181.011C140.288 178.349 126.362 172 114.893 161.555C103.834 151.52 105.677 131.654 109.159 116.704C114.074 95.8144 127.386 80.4544 145.818 75.1296C165.683 69.1904 189.645 71.4432 206.643 80.864C223.847 90.2848 233.063 106.054 232.448 125.101C231.834 142.509 222.208 161.965 208.896 172.41C199.066 180.192 185.754 182.24 174.08 182.24ZM169.165 74.5152C161.587 74.5152 154.01 75.5392 146.637 77.5872C129.024 82.912 116.736 96.8384 112.026 117.114C109.363 128.787 106.291 149.677 116.941 159.098C128 169.133 141.517 175.277 158.311 177.939C170.394 179.782 192.717 181.216 207.463 169.747C220.16 159.917 229.376 141.28 229.786 124.691C230.605 101.754 216.883 89.2608 205.415 82.912C194.151 77.3824 181.658 74.3104 169.165 74.5152Z" fill="#1C1A27"/>
<path d="M190.259 198.214L192.717 232.826C192.717 232.826 189.44 249.005 165.888 245.114C142.336 241.222 137.626 225.658 137.626 225.658L135.373 160.941C135.373 160.941 169.984 138.822 161.997 102.163C161.997 102.163 178.381 122.234 212.173 115.066C212.173 115.066 215.245 156.23 214.016 174.253C212.787 192.685 190.259 198.214 190.259 198.214Z" fill="white"/>
<path d="M172.442 247.162C170.189 247.162 167.936 246.957 165.683 246.547C141.517 242.656 136.602 226.886 136.397 226.272C136.397 226.067 136.397 226.067 136.397 225.862L134.144 161.146C134.144 160.736 134.349 160.122 134.758 159.917C135.168 159.712 168.55 137.798 160.768 102.573C160.563 101.754 161.178 100.934 161.792 100.934C162.406 100.73 162.816 100.934 163.226 101.344C163.43 101.549 179.405 120.595 212.173 113.837C212.582 113.837 212.992 113.837 213.402 114.042C213.811 114.246 214.016 114.656 214.016 115.066C214.016 115.475 217.088 156.64 215.859 174.662C214.63 191.251 197.018 197.805 192.102 199.238L194.56 232.621C194.56 232.826 194.56 232.826 194.56 233.03C194.15 233.235 191.078 247.162 172.442 247.162ZM139.059 225.658C139.674 227.296 144.794 240.403 166.093 243.885C186.778 247.162 190.874 234.464 191.283 232.826L188.826 198.419C188.826 197.805 189.235 197.19 189.85 196.986C190.054 196.986 211.354 191.456 212.582 174.662C213.811 158.893 211.558 124.896 210.944 117.114C185.754 121.824 170.394 111.994 164.25 106.669C168.346 138.413 141.517 158.893 136.806 162.17L139.059 225.658Z" fill="#1C1A27"/>
<path d="M146.227 158.483C145.203 155.411 143.155 152.749 140.493 150.906C137.83 149.267 134.963 148.038 132.096 147.424C130.458 146.81 128.819 146.81 127.181 147.014C125.952 147.219 124.928 147.834 124.109 148.448C121.651 149.882 119.808 152.134 118.989 154.797C118.579 157.05 118.579 159.302 119.194 161.35C119.603 163.808 120.422 166.061 121.446 168.314C126.157 177.325 137.216 180.806 146.227 176.096C146.227 176.096 146.432 176.096 146.432 175.891" fill="white"/>
<path d="M137.626 179.373C135.782 179.373 133.735 179.168 131.891 178.554C126.771 176.915 122.675 173.434 120.218 168.723C118.989 166.47 118.17 164.013 117.76 161.555C117.146 159.098 116.941 156.64 117.555 154.182C118.579 151.11 120.627 148.653 123.29 147.014C124.314 146.195 125.747 145.581 126.976 145.376C128.819 145.171 130.662 145.376 132.506 145.786C135.578 146.4 138.65 147.629 141.517 149.472C144.384 151.52 146.637 154.387 147.866 157.869C148.07 158.688 147.661 159.507 147.047 159.712C146.227 159.917 145.408 159.507 145.203 158.893C144.179 156.026 142.541 153.568 140.083 151.93C137.626 150.496 134.963 149.267 132.096 148.653C130.662 148.243 129.229 148.038 127.795 148.243C126.771 148.448 125.952 148.858 125.133 149.472C123.085 150.701 121.446 152.749 120.627 155.002C120.218 157.05 120.422 158.893 120.832 160.941C121.242 163.194 122.061 165.446 123.085 167.494C127.386 175.686 137.626 178.963 146.023 174.662H146.227C146.842 174.253 147.866 174.458 148.071 175.277C148.48 175.891 148.275 176.915 147.661 177.325C144.179 178.758 140.902 179.373 137.626 179.373Z" fill="#1C1A27"/>
<path d="M184.525 142.509C184.525 142.509 198.656 159.098 196.199 162.579C193.741 166.061 185.344 164.832 185.344 164.832" fill="white"/>
<path d="M188.416 166.47C187.392 166.47 186.163 166.47 185.139 166.266C184.32 166.266 183.706 165.651 183.706 164.832C183.706 164.013 184.32 163.398 185.139 163.398H185.344C187.187 163.603 193.126 163.808 194.765 161.555C195.584 159.917 190.054 151.315 183.091 143.328C182.477 142.714 182.682 141.894 183.296 141.28C183.91 140.666 184.73 140.87 185.344 141.485C190.874 148.038 199.885 159.507 197.018 163.398C195.379 166.061 191.488 166.47 188.416 166.47Z" fill="#1C1A27"/>
<path d="M195.174 174.458L167.936 165.037C167.936 165.037 162.816 175.072 172.646 184.698C183.296 195.142 195.174 174.458 195.174 174.458Z" fill="white"/>
<path d="M179.2 189.203C176.333 189.203 173.67 187.974 171.827 185.926C161.382 175.686 166.912 164.627 166.912 164.627C167.322 164.013 167.936 163.603 168.755 163.808L195.994 173.229C196.403 173.434 196.813 173.638 196.813 174.048C197.018 174.458 197.018 174.867 196.813 175.277C196.608 175.686 189.44 187.974 180.838 189.203C180.019 188.998 179.61 189.203 179.2 189.203ZM168.96 166.88C168.141 169.542 166.707 176.71 173.875 183.674C175.514 185.517 177.766 186.336 180.224 186.131C185.754 185.312 191.078 178.349 193.126 175.072L168.96 166.88Z" fill="#1C1A27"/>
<path d="M176.538 139.027C176.333 139.027 175.923 139.027 175.718 138.822C168.55 134.522 164.25 136.16 164.25 136.16C163.43 136.365 162.611 135.955 162.406 135.341C162.202 134.726 162.406 133.907 163.226 133.497C163.43 133.497 168.96 131.245 177.357 136.365C177.971 136.774 178.176 137.594 177.766 138.413C177.562 138.822 177.152 139.027 176.538 139.027Z" fill="#1C1A27"/>
<path d="M194.151 139.232C193.741 139.232 193.331 139.027 193.127 138.822C192.512 138.208 192.512 137.389 193.127 136.774C193.331 136.57 193.741 136.365 194.151 136.365L195.379 135.75C198.042 134.112 203.571 131.04 209.101 133.293C209.92 133.702 210.125 134.522 209.92 135.136C209.715 135.955 208.896 136.16 208.077 135.955C203.981 134.317 199.271 136.774 196.813 138.208C195.994 138.618 195.175 139.027 194.151 139.232Z" fill="#1C1A27"/>
<path d="M190.259 198.214C190.259 198.214 172.237 199.034 163.635 194.528C163.635 194.528 171.622 214.803 191.283 218.899L190.259 198.214Z" fill="#1C1A27"/>
<path d="M191.488 220.538H191.079C170.803 216.237 162.611 196.166 162.407 195.142C162.202 194.528 162.407 193.914 162.816 193.504C163.226 193.094 163.84 193.094 164.455 193.299C172.647 197.6 190.055 196.781 190.259 196.781C191.079 196.781 191.693 197.395 191.693 198.214L192.717 219.104C192.717 219.514 192.512 219.923 192.307 220.333C192.103 220.538 191.693 220.538 191.488 220.538ZM166.707 197.395C169.779 202.925 177.152 213.779 190.055 217.261L189.031 199.853C185.139 199.853 174.49 199.853 166.707 197.395Z" fill="#1C1A27"/>
<path d="M101.376 324.986C106.701 305.325 88.6785 270.918 83.5585 253.715C78.8481 237.741 56.9345 195.962 61.0305 179.578C61.0305 179.578 71.0657 139.846 61.4401 145.786C56.1153 149.062 52.2241 165.446 52.2241 165.446C52.2241 165.446 46.2849 129.402 36.8641 125.715C27.4433 122.029 8.80654 145.786 11.6737 155.821C20.8897 188.998 24.3713 224.019 28.6721 258.016C32.3585 288.531 31.7441 337.273 73.5233 339.526C90.7265 340.346 98.7137 334.406 101.376 324.986Z" fill="white"/>
<path d="M76.8 340.96C75.776 340.96 74.5472 340.96 73.3185 340.96C35.2256 338.912 31.1297 298.771 28.2624 269.485C27.8528 265.594 27.4432 261.702 27.0336 258.221L25.6001 246.547C22.1185 216.442 18.432 185.517 10.24 156.23C8.19205 149.267 15.5648 136.774 23.3472 129.606C28.6721 124.691 33.5873 123.053 37.2737 124.282C45.0561 127.354 50.1761 148.243 52.4289 159.098C54.0673 153.773 56.9345 146.81 60.6209 144.557C61.8497 143.533 63.4881 143.533 64.9217 144.352C70.0417 148.038 64.3073 172.614 62.2593 179.987C59.3921 191.046 69.632 215.827 77.2096 233.85C80.4865 241.837 83.3537 248.595 84.7873 253.306C86.2209 258.016 88.4736 263.546 90.7264 269.485C97.8944 287.712 106.701 310.445 102.605 325.19C99.9425 335.84 91.136 340.96 76.8 340.96ZM34.816 126.739C32.3584 126.739 28.8769 128.378 25.3952 131.654C17.408 138.822 11.6736 150.086 13.1072 155.411C21.2992 184.902 24.9857 216.032 28.6721 246.138L30.1056 257.811C30.5152 261.293 30.9249 265.184 31.3344 269.075C34.2017 298.771 37.8881 336.045 73.7281 337.888C88.6785 338.707 97.2801 334.202 99.9425 324.576C103.834 310.445 95.0273 288.326 88.064 270.509C85.6065 264.365 83.3537 258.63 81.9201 254.125C80.4865 249.619 77.8241 242.861 74.5473 235.078C66.5601 215.622 56.3201 191.456 59.3921 179.373C63.0785 165.037 65.3313 148.448 63.0785 146.81C63.0785 146.81 62.6688 146.81 62.0545 147.219C57.9585 149.677 54.4769 161.555 53.6577 166.061C53.4529 166.675 52.8385 167.29 52.2241 167.29C51.6097 167.29 50.9953 166.675 50.7905 166.061C49.1521 156.23 43.4176 130.221 36.4544 127.354C35.84 126.944 35.4305 126.739 34.816 126.739Z" fill="#1C1A27"/>
<path d="M31.5393 182.65H31.1297C30.3105 182.445 29.9009 181.626 30.1057 181.011C32.7681 169.952 50.7905 164.422 51.6097 164.218C52.4289 164.013 53.2481 164.422 53.4529 165.242C53.6577 166.061 53.2481 166.88 52.4289 167.085C52.2241 167.085 35.2257 172.41 32.7681 181.83C32.7681 182.24 32.3585 182.65 31.5393 182.65Z" fill="#1C1A27"/>
<path d="M231.219 328.262C230.605 328.262 229.991 327.648 229.786 327.034L217.498 245.933C217.293 245.114 217.703 244.294 218.522 244.294C219.341 244.09 220.16 244.499 220.16 245.318V245.523L232.448 326.624C232.653 327.443 232.039 328.058 231.219 328.262Z" fill="#1C1A27"/>
<path d="M130.662 277.677C130.458 277.677 130.253 277.677 130.048 277.677C129.229 277.472 129.024 276.653 129.229 275.834L144.589 236.922C144.794 236.102 145.613 235.898 146.432 236.102C147.251 236.307 147.456 237.126 147.251 237.946L131.891 276.858C131.687 277.267 131.072 277.677 130.662 277.677Z" fill="#1C1A27"/>
<path d="M149.709 251.462C149.504 251.462 149.504 251.462 149.299 251.462L132.71 245.728C131.891 245.523 131.482 244.704 131.891 243.885C132.096 243.066 132.915 242.656 133.734 243.066L150.323 248.595C151.142 248.8 151.552 249.619 151.142 250.438C150.733 251.053 150.323 251.258 149.709 251.462Z" fill="#1C1A27"/>
<path d="M146.022 264.979C145.818 264.979 145.613 264.979 145.408 264.979L128.41 258.221C127.59 257.811 127.386 256.992 127.59 256.378C127.795 255.558 128.614 255.354 129.434 255.558L146.432 262.317C147.251 262.522 147.456 263.546 147.251 264.16C147.046 264.57 146.637 264.979 146.022 264.979Z" fill="#1C1A27"/>
<path d="M506.061 255.149C512.205 235.693 523.264 228.73 569.754 203.949C616.243 179.168 684.442 197.805 709.018 212.55C733.594 227.296 751.616 249.005 765.338 266.003C779.059 283.002 779.059 326.419 779.059 326.419H500.736C500.736 326.419 500.122 274.605 506.061 255.149Z" fill="#0047FF"/>
<path d="M707.584 327.853C706.765 327.853 706.151 327.238 706.151 326.624L700.621 261.293C700.621 260.474 701.236 259.859 701.85 259.654C702.669 259.654 703.283 260.269 703.488 260.883L709.018 326.214C709.018 327.034 708.403 327.648 707.584 327.853Z" fill="#1C1A27"/>
<path d="M630.374 50.9632C663.552 53.8304 679.117 69.8048 687.923 139.027C694.887 193.504 690.381 189.203 725.811 222.586C725.811 222.586 693.453 266.822 627.917 266.822C562.381 266.822 517.12 232.826 517.12 232.826C517.12 232.826 566.682 202.515 565.658 172.819C562.586 69.3952 597.197 48.096 630.374 50.9632Z" fill="white"/>
<path d="M628.122 268.256C588.391 268.051 549.479 255.968 516.506 233.85C516.096 233.645 515.891 233.03 515.891 232.621C515.891 232.211 516.096 231.802 516.506 231.392C516.915 231.187 565.248 201.286 564.429 172.819C562.791 117.728 571.597 80.4544 590.848 62.2272C601.293 52.3968 614.605 48.096 630.375 49.5296C667.034 52.6016 680.755 73.4912 689.152 138.822C689.971 144.966 690.586 150.291 691.2 155.002C695.706 192.07 695.706 192.07 726.631 221.152L726.835 221.357C727.45 221.766 727.45 222.586 727.04 223.2C726.835 223.814 693.453 268.256 628.122 268.256ZM519.987 232.826C552.141 253.715 589.824 265.184 628.122 265.389C686.49 265.389 718.643 229.139 723.968 222.586C693.043 193.504 693.043 193.299 688.538 155.411C687.923 150.701 687.309 145.376 686.49 139.232C677.479 68.7808 661.095 55.0592 630.17 52.3968C615.015 51.168 602.522 55.0592 592.691 64.48C574.055 82.0928 565.453 118.547 567.091 172.819C568.115 200.058 528.999 226.886 519.987 232.826Z" fill="#1C1A27"/>
<path d="M625.255 183.059C645.727 183.059 662.323 159.311 662.323 130.016C662.323 100.721 645.727 76.9728 625.255 76.9728C604.782 76.9728 588.186 100.721 588.186 130.016C588.186 159.311 604.782 183.059 625.255 183.059Z" fill="white"/>
<path d="M625.255 184.493C591.258 184.493 586.547 158.278 586.547 130.016C586.547 100.73 586.547 75.5392 625.255 75.5392C663.962 75.5392 663.757 100.73 663.757 130.016C663.962 158.278 659.251 184.493 625.255 184.493ZM625.255 78.4064C589.415 78.4064 589.415 100.115 589.415 130.016C589.415 160.941 595.559 181.626 625.255 181.626C654.951 181.626 660.89 160.941 660.89 130.016C661.095 100.115 661.095 78.4064 625.255 78.4064Z" fill="#1C1A27"/>
<path d="M618.496 121.824C618.496 121.824 604.365 138.413 606.822 141.894C609.28 145.376 617.472 144.147 617.472 144.147" fill="white"/>
<path d="M614.605 145.786C611.738 145.786 607.642 145.376 605.798 142.714C603.136 138.822 611.943 127.354 617.472 121.005C617.882 120.39 618.906 120.39 619.52 120.8C620.135 121.21 620.135 122.234 619.725 122.848C612.762 131.04 607.437 139.642 608.256 141.075C609.895 143.328 615.629 143.123 617.677 142.714C618.496 142.714 619.11 143.123 619.315 143.942C619.52 144.762 618.906 145.376 618.086 145.581C616.653 145.786 615.629 145.786 614.605 145.786Z" fill="#1C1A27"/>
<path d="M603.374 121.217C605.071 121.207 606.435 119.274 606.422 116.899C606.409 114.524 605.023 112.606 603.326 112.615C601.63 112.625 600.265 114.558 600.278 116.933C600.291 119.309 601.678 121.226 603.374 121.217Z" fill="#1C1A27"/>
<path d="M635.119 121.217C636.815 121.207 638.18 119.274 638.167 116.899C638.153 114.524 636.767 112.606 635.071 112.615C633.374 112.625 632.009 114.558 632.023 116.933C632.036 119.309 633.422 121.226 635.119 121.217Z" fill="#1C1A27"/>
<path d="M607.846 153.773L635.085 144.352C635.085 144.352 640.205 154.387 630.374 164.013C619.725 174.458 607.846 153.773 607.846 153.773Z" fill="white"/>
<path d="M623.821 168.518C623.411 168.518 623.002 168.518 622.592 168.518C613.99 167.29 606.822 155.206 606.618 154.592C606.208 153.978 606.413 152.954 607.232 152.544H607.437L634.675 143.123C635.29 142.918 636.109 143.123 636.518 143.738C636.518 143.942 641.843 154.797 631.603 165.037C629.35 167.29 626.688 168.314 623.821 168.518ZM609.894 154.387C611.942 157.459 617.267 164.627 623.002 165.446C625.459 165.651 627.712 164.832 629.35 162.989C636.518 156.026 635.085 148.858 634.266 146.195L609.894 154.387Z" fill="#1C1A27"/>
<path d="M565.658 327.853C564.839 327.853 564.224 327.238 564.224 326.419V269.485C564.224 268.666 564.839 268.051 565.658 268.051C566.477 268.051 567.091 268.666 567.091 269.485V326.419C567.091 327.238 566.477 327.853 565.658 327.853Z" fill="#1C1A27"/>
<path d="M628.941 217.261C616.039 217.056 603.136 215.213 590.643 211.731C589.824 211.526 589.415 210.707 589.619 209.888C589.824 209.069 590.643 208.659 591.258 208.864C623.821 217.67 645.939 213.984 658.842 209.274C672.768 204.154 678.912 196.986 679.117 196.986C679.731 196.371 680.551 196.371 681.165 196.781C681.779 197.19 681.779 198.214 681.37 198.829C680.346 199.853 665.191 217.261 628.941 217.261Z" fill="#D1D3D4"/>
<path d="M500.736 327.853C500.122 327.853 499.507 327.443 499.302 326.624C492.134 285.254 508.518 245.728 508.723 245.318C509.133 244.499 509.952 244.294 510.566 244.499C511.386 244.909 511.59 245.728 511.386 246.342C511.181 246.752 495.206 285.664 502.17 326.214C502.374 327.034 501.76 327.648 501.146 327.853H500.736Z" fill="#1C1A27"/>
<path d="M772.096 60.9985C772.096 60.9985 799.949 6.72645 804.659 4.88325C809.37 3.04005 823.091 8.56967 822.067 11.4369C821.043 14.3041 815.309 40.3137 815.309 40.3137C815.309 40.3137 830.259 30.6881 831.898 34.5793C833.536 38.4705 815.104 57.9265 815.104 57.9265L790.119 99.5009L772.096 60.9985Z" fill="#D1D3D4"/>
<path d="M790.118 100.934C789.504 100.934 789.094 100.525 788.89 100.115L770.662 61.6128C770.458 61.2032 770.458 60.7936 770.662 60.384C777.216 47.4816 799.13 5.49762 804.045 3.44962C808.55 1.60642 818.995 5.29282 822.272 8.56962C823.296 9.38882 823.706 10.6176 823.501 11.8464C822.886 13.6896 819.405 28.4352 817.562 37.2416C821.862 34.784 828.416 31.3024 831.488 32.3264C832.307 32.5312 832.922 33.1456 833.331 33.9648C834.97 38.0608 823.501 51.3728 816.333 58.9504L791.347 100.32C791.142 100.73 790.733 100.934 790.118 100.934ZM773.734 60.9984L790.323 96.224L813.875 57.1072L814.08 56.9024C822.272 48.096 830.874 37.2416 830.464 34.9888C829.235 34.3744 822.477 37.4464 816.128 41.5424C815.718 41.952 814.899 41.952 814.49 41.5424C814.08 41.1328 813.67 40.5184 813.875 39.904C814.08 38.88 819.405 14.7136 820.634 11.0272C819.405 9.79841 817.971 8.77441 816.128 7.95521C811.827 6.11201 807.117 5.08801 805.069 5.90721C802.202 7.95521 786.842 35.6032 773.734 60.9984Z" fill="#1C1A27"/>
<path d="M774.144 146.81L804.454 78.6112L770.662 49.9392C770.662 49.9392 687.514 157.05 722.33 184.493L801.792 262.317L874.701 211.117L774.144 146.81Z" fill="#0047FF"/>
<path d="M868.966 99.7057C868.966 99.7057 872.038 84.1409 888.832 73.2865C905.625 62.4321 952.32 69.6001 960.717 88.6465C969.114 107.693 944.333 157.459 944.333 157.459L864.666 178.963L868.966 99.7057Z" fill="white"/>
<path d="M864.666 180.192C863.846 180.192 863.232 179.578 863.232 178.758C863.232 178.758 863.232 178.758 863.232 178.554L867.533 99.5009V99.2961C867.738 98.6817 870.81 82.9121 888.218 71.8529C898.253 65.5041 918.528 64.6849 936.755 70.2145C949.862 74.1057 958.874 80.4545 962.15 87.8273C970.752 107.283 946.79 155.821 945.766 157.869C945.562 158.278 945.152 158.483 944.742 158.688L865.075 180.192C864.87 180.192 864.87 180.192 864.666 180.192ZM870.4 99.9105L866.304 176.915L943.309 156.23C945.971 150.496 967.066 106.464 959.283 89.2609C956.211 82.7073 947.814 76.7681 935.731 73.2865C918.528 68.1665 898.867 68.7809 889.651 74.7201C880.23 80.2497 873.472 89.2609 870.4 99.9105Z" fill="#1C1A27"/>
<path d="M940.442 326.419C946.176 283.616 949.862 241.427 945.152 233.44C928.973 205.792 855.859 222.79 842.342 228.934C837.018 231.392 840.294 274.605 831.693 326.624H940.442V326.419Z" fill="#1C1A27"/>
<path d="M1009.25 328.262C1009.25 328.262 1024 255.354 1001.68 233.645C979.354 211.936 925.901 215.213 925.901 215.213C925.901 215.213 841.319 203.539 815.309 216.851C804.659 222.381 791.143 269.894 778.24 326.214H851.354L871.424 229.139L936.96 231.187L915.456 326.419L1009.25 328.262Z" fill="#0047FF"/>
<path d="M877.363 191.251L871.629 229.344C871.629 229.344 874.291 254.534 899.686 251.462C915.046 249.414 928.563 240.608 936.55 227.501L944.333 157.459C944.333 157.459 927.13 145.581 936.96 106.259C914.023 107.488 891.085 105.235 868.762 99.9104C868.762 99.9104 855.245 149.882 856.064 169.542C856.883 189.203 877.363 191.251 877.363 191.251Z" fill="#D1D3D4"/>
<path d="M895.59 253.101C890.061 253.306 884.531 251.462 880.23 248.186C871.629 241.427 870.4 229.958 870.4 229.549C870.4 229.344 870.4 229.344 870.4 229.139L875.93 192.48C871.014 191.456 855.654 186.746 854.835 169.338C854.016 149.677 867.123 101.344 867.738 99.296C867.942 98.4768 868.762 98.0672 869.581 98.272C891.699 103.597 914.432 105.645 937.165 104.621C937.574 104.621 938.189 104.826 938.394 105.03C938.803 105.44 938.803 105.85 938.598 106.259C928.973 143.942 945.152 155.821 945.357 156.026C945.766 156.435 945.971 156.845 945.971 157.459L938.189 227.501C938.189 227.706 938.189 227.91 937.984 228.115C929.792 241.632 915.661 250.848 900.096 252.896C898.458 253.101 897.024 253.101 895.59 253.101ZM873.267 229.344C873.472 230.778 874.906 240.198 882.074 245.728C886.579 249.414 892.518 250.643 899.686 249.824C914.432 247.776 927.334 239.379 935.322 226.886L942.899 157.869C939.622 155.002 927.13 141.894 935.322 107.488C913.408 108.307 891.494 106.259 870.195 101.344C867.942 109.536 857.088 151.725 857.907 169.133C858.726 187.155 876.954 189.613 877.773 189.613C878.182 189.613 878.592 189.818 878.797 190.227C879.002 190.637 879.206 191.046 879.002 191.251L873.267 229.344Z" fill="#1C1A27"/>
<path d="M874.496 211.117C874.496 211.117 884.122 214.189 896.41 204.973C908.698 195.757 908.288 189.408 908.288 189.408C908.288 189.408 893.338 196.371 877.568 191.251L874.496 211.117Z" fill="#1C1A27"/>
<path d="M878.592 212.96C876.954 212.96 875.52 212.755 873.882 212.346C873.268 212.141 872.858 211.526 872.858 210.707L875.725 190.842C875.725 190.432 875.93 190.022 876.339 189.818C876.749 189.613 877.159 189.613 877.568 189.613C892.723 194.528 907.264 187.974 907.264 187.974C907.674 187.77 908.083 187.77 908.493 187.974C908.903 188.179 909.107 188.589 909.107 189.203C909.107 190.022 909.107 196.371 896.615 205.997C891.904 210.298 885.351 212.755 878.592 212.96ZM876.135 210.093C879.002 210.502 886.375 210.912 895.591 203.949C902.554 198.624 905.216 194.323 906.24 191.866C897.434 194.938 887.808 195.347 878.592 193.094L876.135 210.093Z" fill="#1C1A27"/>
<path d="M900.301 135.75C900.301 135.75 886.17 156.23 889.447 159.917C892.723 163.603 901.939 161.35 901.939 161.35" fill="#D1D3D4"/>
<path d="M896 163.399C893.133 163.603 890.471 162.784 888.218 160.736C884.531 156.64 894.567 141.28 898.867 134.931C899.277 134.317 900.301 134.112 900.915 134.522C901.53 134.931 901.735 135.955 901.325 136.57C894.362 146.81 889.037 157.255 890.266 158.893C892.314 161.351 899.072 160.326 901.325 159.712C902.144 159.507 902.963 159.917 903.168 160.736C903.373 161.555 902.963 162.374 902.144 162.579C900.096 162.989 898.048 163.399 896 163.399Z" fill="#1C1A27"/>
<path d="M898.048 177.325H897.024C885.146 176.915 876.749 167.494 876.339 167.085C875.725 166.47 875.725 165.651 876.339 165.037C876.954 164.422 877.773 164.627 878.387 165.037C878.387 165.037 886.579 173.843 897.024 174.253C903.373 174.253 909.312 171.795 913.613 167.29C914.227 166.675 915.046 166.675 915.661 167.29C916.275 167.904 916.275 168.723 915.661 169.338C911.155 174.458 904.806 177.325 898.048 177.325Z" fill="#1C1A27"/>
<path d="M919.139 132.993C919.261 129.828 918.26 127.22 916.904 127.168C915.548 127.115 914.349 129.638 914.227 132.803C914.105 135.968 915.105 138.576 916.462 138.628C917.818 138.681 919.017 136.157 919.139 132.993Z" fill="#1C1A27"/>
<path d="M883.65 129.136C883.772 125.971 882.772 123.363 881.415 123.311C880.059 123.259 878.86 125.782 878.738 128.947C878.616 132.111 879.617 134.719 880.973 134.772C882.329 134.824 883.528 132.301 883.65 129.136Z" fill="#1C1A27"/>
<path d="M929.587 145.376C932.25 141.894 935.527 138.822 939.213 136.57C941.261 135.136 943.514 134.522 945.971 134.522C947.815 134.726 949.658 135.546 951.296 136.774C956.007 140.256 958.874 145.376 959.488 151.315C959.693 153.978 959.283 156.64 958.464 159.098C956.621 162.784 953.549 165.856 949.658 167.494C945.767 169.133 941.875 170.362 937.779 171.181" fill="#D1D3D4"/>
<path d="M937.574 172.41C936.755 172.41 936.141 171.795 935.936 170.976C935.936 170.157 936.346 169.542 937.165 169.338C941.056 168.518 944.947 167.494 948.634 165.651C952.115 164.013 954.982 161.351 956.621 157.869C957.44 155.616 957.85 153.158 957.645 150.906C957.03 145.581 954.368 140.666 950.067 137.594C948.838 136.57 947.2 135.955 945.562 135.75C943.514 135.75 941.465 136.57 939.827 137.594C936.345 139.846 933.069 142.714 930.611 145.99C930.201 146.605 929.177 146.81 928.563 146.4C927.949 145.99 927.744 144.966 928.358 144.352C931.021 140.666 934.502 137.594 938.394 135.136C940.646 133.702 943.309 132.678 945.971 132.883C948.224 133.088 950.272 133.907 952.115 135.341C957.03 139.027 960.307 144.762 960.922 150.906C961.126 153.773 960.717 156.64 959.693 159.302C957.645 163.398 954.368 166.675 950.272 168.518C946.381 170.362 942.285 171.59 938.189 172.41H937.574Z" fill="#1C1A27"/>
<path d="M988.774 284.845C981.402 294.47 971.366 309.421 960.717 326.419H988.774V284.845Z" fill="#0047FF"/>
<path d="M960.717 327.853C959.898 327.853 959.283 327.238 959.283 326.419C959.283 326.214 959.283 326.01 959.488 325.805L987.546 261.702C987.955 260.883 988.774 260.678 989.594 260.883C990.413 261.293 990.618 262.112 990.413 262.726L962.355 326.829C961.946 327.443 961.331 327.853 960.717 327.853Z" fill="#1C1A27"/>
<path d="M792.781 49.9392C792.371 49.9392 792.166 49.9393 791.962 49.7345C791.347 49.3249 791.142 48.3009 791.757 47.6865C800.768 35.6033 815.104 38.88 815.718 38.88C816.537 39.0848 816.947 39.6993 816.947 40.5185C816.742 41.3377 816.128 41.7472 815.309 41.7472C815.309 41.7472 815.309 41.7472 815.104 41.7472C814.489 41.5424 801.792 38.8801 794.214 49.3249C793.805 49.7345 793.19 49.9392 792.781 49.9392Z" fill="#1C1A27"/>
</svg>
